<svg width="736" height="536" viewBox="0 0 736 536" fill="none" xmlns="http://www.w3.org/2000/svg">
    <path opacity="0.1" d="M489.064 33.9C306.419 -41.431 87.3569 88.079 36.6529 194.905C-85.1001 451.418 127.668 569.8 221.268 526.5C260.343 508.422 292.261 477.552 323.109 447.518C369.427 402.807 430.796 377.041 495.149 375.286C544.711 374.147 594.035 387.446 643.455 383.541C692.875 379.636 736.53 311.478 735.19 261.922C733.146 186.284 684.921 114.677 489.064 33.9Z" fill="#367CFF"/>
    <path d="M614.826 27.178H120.395C103.999 27.178 90.7078 40.4693 90.7078 56.865V445.953C90.7078 462.349 103.999 475.64 120.395 475.64H614.826C631.221 475.64 644.513 462.349 644.513 445.953V56.865C644.513 40.4693 631.221 27.178 614.826 27.178Z" fill="white"/>
    <path d="M614.826 476.572H120.394C112.276 476.563 104.494 473.334 98.7536 467.594C93.0136 461.853 89.7849 454.071 89.7759 445.953V56.865C89.7849 48.7473 93.0136 40.9646 98.7536 35.2244C104.494 29.4842 112.276 26.2553 120.394 26.246H614.826C622.944 26.2553 630.726 29.4842 636.466 35.2244C642.206 40.9646 645.435 48.7473 645.444 56.865V445.953C645.435 454.071 642.206 461.853 636.466 467.594C630.726 473.334 622.944 476.563 614.826 476.572ZM120.394 28.109C112.77 28.1177 105.461 31.1502 100.07 36.5411C94.6796 41.9321 91.6473 49.2412 91.6389 56.865V445.953C91.6473 453.577 94.6796 460.886 100.07 466.277C105.461 471.668 112.77 474.7 120.394 474.709H614.826C622.45 474.7 629.759 471.668 635.149 466.277C640.54 460.886 643.572 453.577 643.581 445.953V56.865C643.572 49.2412 640.54 41.9321 635.149 36.5411C629.759 31.1502 622.45 28.1177 614.826 28.109H120.394Z" fill="#292A2E"/>
    <path d="M644.513 56.868V113.162H90.71V56.868C90.7089 52.9686 91.4761 49.1072 92.9678 45.5044C94.4594 41.9016 96.6463 38.628 99.4034 35.8706C102.161 33.1132 105.434 30.926 109.037 29.434C112.639 27.9419 116.501 27.1743 120.4 27.175H614.828C622.702 27.1763 630.253 30.3054 635.82 35.8738C641.387 41.4423 644.514 48.9941 644.513 56.868Z" fill="#367CFF"/>
    <path d="M645.513 114.162H89.7109V56.868C89.7186 48.7308 92.9543 40.9289 98.7078 35.1747C104.461 29.4204 112.263 26.1837 120.4 26.175H614.828C622.964 26.1851 630.765 29.4223 636.517 35.1764C642.27 40.9305 645.505 48.7315 645.513 56.868V114.162ZM91.7129 112.162H643.513V56.868C643.505 49.2619 640.481 41.9694 635.103 36.5903C629.726 31.2112 622.434 28.1848 614.828 28.175H120.4C112.793 28.1835 105.5 31.2093 100.122 36.5886C94.7432 41.9678 91.7183 49.2611 91.7109 56.868L91.7129 112.162Z" fill="#367CFF"/>
    <path d="M234.556 56.341V14.784C234.556 7.13375 228.354 0.931995 220.704 0.931995C213.054 0.931995 206.852 7.13375 206.852 14.784V56.341C206.852 63.9912 213.054 70.193 220.704 70.193C228.354 70.193 234.556 63.9912 234.556 56.341Z" fill="white"/>
    <path d="M220.7 71.124C216.781 71.1187 213.024 69.5593 210.253 66.7878C207.483 64.0163 205.924 60.259 205.92 56.34V14.784C205.904 12.8324 206.274 10.8969 207.01 9.08918C207.746 7.28147 208.832 5.63734 210.207 4.25162C211.581 2.8659 213.216 1.76602 215.018 1.01544C216.819 0.26485 218.752 -0.12159 220.703 -0.12159C222.655 -0.12159 224.588 0.26485 226.389 1.01544C228.191 1.76602 229.826 2.8659 231.2 4.25162C232.575 5.63734 233.661 7.28147 234.397 9.08918C235.132 10.8969 235.503 12.8324 235.487 14.784V56.34C235.483 60.2602 233.923 64.0185 231.151 66.7902C228.379 69.562 224.62 71.1206 220.7 71.124ZM220.7 1.863C217.274 1.8667 213.99 3.22921 211.568 5.65156C209.145 8.07392 207.783 11.3583 207.779 14.784V56.34C207.764 58.0463 208.087 59.7387 208.73 61.3195C209.372 62.9002 210.322 64.338 211.523 65.5499C212.724 66.7618 214.153 67.7237 215.729 68.3802C217.304 69.0367 218.993 69.3747 220.699 69.3747C222.406 69.3747 224.095 69.0367 225.67 68.3802C227.245 67.7237 228.675 66.7618 229.876 65.5499C231.077 64.338 232.027 62.9002 232.669 61.3195C233.312 59.7387 233.635 58.0463 233.62 56.34V14.784C233.616 11.3584 232.254 8.07424 229.832 5.65192C227.41 3.22959 224.125 1.86697 220.7 1.863Z" fill="#262626"/>
    <path d="M528.369 56.34V14.783C528.369 7.13276 522.167 0.930984 514.517 0.930984C506.867 0.930984 500.665 7.13276 500.665 14.783V56.34C500.665 63.9902 506.867 70.192 514.517 70.192C522.167 70.192 528.369 63.9902 528.369 56.34Z" fill="white"/>
    <path d="M514.517 71.124C510.597 71.1198 506.839 69.5608 504.068 66.7892C501.296 64.0176 499.737 60.2597 499.733 56.34V14.784C499.733 10.863 501.291 7.10267 504.063 4.33013C506.836 1.5576 510.596 0 514.517 0C518.438 0 522.198 1.5576 524.971 4.33013C527.743 7.10267 529.301 10.863 529.301 14.784V56.34C529.297 60.2597 527.738 64.0176 524.966 66.7892C522.194 69.5608 518.437 71.1198 514.517 71.124ZM514.517 1.863C511.092 1.86776 507.809 3.23074 505.387 5.65298C502.966 8.07522 501.604 11.359 501.6 14.784V56.34C501.6 59.7669 502.961 63.0534 505.384 65.4765C507.808 67.8997 511.094 69.261 514.521 69.261C517.948 69.261 521.234 67.8997 523.657 65.4765C526.081 63.0534 527.442 59.7669 527.442 56.34V14.784C527.438 11.3576 526.075 8.07262 523.652 5.65015C521.229 3.22769 517.943 1.86565 514.517 1.863Z" fill="#262626"/>
    <g opacity="0.08">
        <path d="M197.498 152.996H117.769V231.361H197.498V152.996Z" fill="#367CFF"/>
        <path d="M197.498 253.152H117.769V331.517H197.498V253.152Z" fill="#367CFF"/>
        <path d="M197.498 353.309H117.769V431.674H197.498V353.309Z" fill="#367CFF"/>
        <path d="M302.48 152.996H222.751V231.361H302.48V152.996Z" fill="#367CFF"/>
        <path d="M302.48 253.152H222.751V331.517H302.48V253.152Z" fill="#367CFF"/>
        <path d="M406.405 152.996H326.676V231.361H406.405V152.996Z" fill="#367CFF"/>
        <path d="M406.405 253.152H326.676V331.517H406.405V253.152Z" fill="#367CFF"/>
        <path d="M513.271 152.996H433.542V231.361H513.271V152.996Z" fill="#367CFF"/>
        <path d="M513.271 253.152H433.542V331.517H513.271V253.152Z" fill="#367CFF"/>
        <path d="M302.48 353.309H222.751V431.674H302.48V353.309Z" fill="#367CFF"/>
        <path d="M406.405 353.309H326.676V431.674H406.405V353.309Z" fill="#367CFF"/>
        <path d="M617.451 152.996H537.722V231.361H617.451V152.996Z" fill="#367CFF"/>
        <path d="M617.451 253.152H537.722V331.517H617.451V253.152Z" fill="#367CFF"/>
    </g>
    <path d="M316.224 267.523C324.502 267.523 331.212 260.813 331.212 252.535C331.212 244.257 324.502 237.547 316.224 237.547C307.946 237.547 301.236 244.257 301.236 252.535C301.236 260.813 307.946 267.523 316.224 267.523Z" fill="#292A2E"/>
    <path d="M418.996 267.523C427.274 267.523 433.984 260.813 433.984 252.535C433.984 244.257 427.274 237.547 418.996 237.547C410.719 237.547 404.008 244.257 404.008 252.535C404.008 260.813 410.719 267.523 418.996 267.523Z" fill="#292A2E"/>
    <path d="M387.705 293.986H347.515C347.25 293.986 346.996 293.881 346.808 293.693C346.62 293.506 346.515 293.251 346.515 292.986C346.515 292.721 346.62 292.466 346.808 292.279C346.996 292.091 347.25 291.986 347.515 291.986H387.705C387.97 291.986 388.225 292.091 388.412 292.279C388.6 292.466 388.705 292.721 388.705 292.986C388.705 293.251 388.6 293.506 388.412 293.693C388.225 293.881 387.97 293.986 387.705 293.986Z" fill="#262626"/>
    <path d="M300.763 295.409C308.147 295.409 314.133 292.258 314.133 288.372C314.133 284.486 308.147 281.335 300.763 281.335C293.379 281.335 287.393 284.486 287.393 288.372C287.393 292.258 293.379 295.409 300.763 295.409Z" fill="white"/>
    <path d="M434.457 295.409C441.841 295.409 447.827 292.258 447.827 288.372C447.827 284.486 441.841 281.335 434.457 281.335C427.073 281.335 421.087 284.486 421.087 288.372C421.087 292.258 427.073 295.409 434.457 295.409Z" fill="white"/>
    <g opacity="0.4">
        <path d="M300.763 295.409C308.147 295.409 314.133 292.258 314.133 288.372C314.133 284.486 308.147 281.335 300.763 281.335C293.379 281.335 287.393 284.486 287.393 288.372C287.393 292.258 293.379 295.409 300.763 295.409Z" fill="#367CFF"/>
        <path d="M434.457 295.409C441.841 295.409 447.827 292.258 447.827 288.372C447.827 284.486 441.841 281.335 434.457 281.335C427.073 281.335 421.087 284.486 421.087 288.372C421.087 292.258 427.073 295.409 434.457 295.409Z" fill="#367CFF"/>
    </g>
</svg>
