<svg width="982" height="943" viewBox="0 0 982 943" fill="none" xmlns="http://www.w3.org/2000/svg">
    <path d="M167.751 223.958L339.812 223.958V1.52588e-05L167.751 1.52588e-05L167.751 223.958Z" fill="#F4F4F4"/>
    <path d="M167.751 0H162.169V223.958H167.751V0Z" fill="#F4F4F4"/>
    <path opacity="0.05" d="M167.751 0H162.169V223.958H167.751V0Z" fill="#292A2E"/>
    <path opacity="0.05" d="M199.094 183.161H308.469V40.796H199.094V183.161Z" fill="#292A2E"/>
    <path opacity="0.03" d="M199.094 183.161H204.794L204.794 40.796H199.094L199.094 183.161Z" fill="#292A2E"/>
    <path d="M27.0319 421.044H167.75L167.75 279.034H27.0319L27.0319 421.044Z" fill="#F4F4F4"/>
    <path opacity="0.05" d="M52.6659 395.175H142.117V304.903H52.6659L52.6659 395.175Z" fill="#292A2E"/>
    <path d="M27.0329 279.033H21.4509V421.043H27.0329V279.033Z" fill="#F4F4F4"/>
    <path opacity="0.05" d="M27.0329 279.033H21.4509V421.043H27.0329V279.033Z" fill="#292A2E"/>
    <path opacity="0.03" d="M52.6669 395.175H58.3669L58.3669 304.903H52.6669L52.6669 395.175Z" fill="#292A2E"/>
    <path d="M930.082 7.98102H525.001V413.062H930.082V7.98102Z" fill="#F4F4F4"/>
    <path d="M934.725 7.98102H930.082V413.062H934.725V7.98102Z" fill="#F4F4F4"/>
    <path opacity="0.05" d="M934.725 7.98102H930.082V413.062H934.725V7.98102Z" fill="#292A2E"/>
    <path opacity="0.05" d="M831.95 287.115V181.133H745.134V242.706H610.657V351.73H553.503V413.062H610.657H621.668H910.596V287.115H831.95Z" fill="#292A2E"/>
    <path opacity="0.34" d="M819.498 192.64H756.278V204.147H819.498V192.64Z" fill="#FFFFFA"/>
    <path opacity="0.34" d="M819.498 216.486H756.278V227.993H819.498V216.486Z" fill="#FFFFFA"/>
    <path opacity="0.34" d="M819.498 240.331H756.278V251.838H819.498V240.331Z" fill="#FFFFFA"/>
    <path opacity="0.34" d="M899.385 298.285H887.733V309.792H899.385V298.285Z" fill="#FFFFFA"/>
    <path opacity="0.34" d="M899.385 322.131H887.733V333.638H899.385V322.131Z" fill="#FFFFFA"/>
    <path opacity="0.34" d="M899.385 345.976H887.733V357.483H899.385V345.976Z" fill="#FFFFFA"/>
    <path opacity="0.34" d="M877.829 298.285H866.177V309.792H877.829V298.285Z" fill="#FFFFFA"/>
    <path opacity="0.34" d="M877.829 322.131H866.177V333.638H877.829V322.131Z" fill="#FFFFFA"/>
    <path opacity="0.34" d="M877.829 345.976H866.177V357.483H877.829V345.976Z" fill="#FFFFFA"/>
    <path opacity="0.34" d="M856.855 298.285H845.203V309.792H856.855V298.285Z" fill="#FFFFFA"/>
    <path opacity="0.34" d="M856.855 322.131H845.203V333.638H856.855V322.131Z" fill="#FFFFFA"/>
    <path opacity="0.34" d="M856.855 345.976H845.203V357.483H856.855V345.976Z" fill="#FFFFFA"/>
    <path d="M930.082 208.25H848.573V7.98102H841.832V208.25H621.668V7.98102H614.927V208.25H525.001V214.99H614.927V413.062H621.668V214.99H841.832V413.062H848.573V214.99H930.082V208.25Z" fill="white"/>
    <path d="M946.219 412.574H508.864V426.045H946.219V412.574Z" fill="#F4F4F4"/>
    <path opacity="0.1" d="M946.219 412.574H508.864V426.045H946.219V412.574Z" fill="#292A2E"/>
    <path opacity="0.1" d="M952.533 412.574H946.219V426.045H952.533V412.574Z" fill="#292A2E"/>
    <path opacity="0.1" d="M952.533 412.574H946.219V426.045H952.533V412.574Z" fill="#292A2E"/>
    <path d="M894.912 809.348C894.781 809.348 894.651 809.323 894.529 809.272C894.408 809.222 894.298 809.148 894.205 809.055C892.796 807.647 890.5 781.797 884.314 704.832C881.782 673.34 879.391 643.594 877.647 625.517C877.522 624.226 877.022 624.076 876.857 624.027C874.469 623.306 867.205 629.033 863.15 634.049C862.983 634.255 862.741 634.387 862.477 634.415C862.214 634.443 861.949 634.365 861.743 634.198C861.537 634.031 861.405 633.789 861.377 633.525C861.349 633.261 861.427 632.997 861.594 632.791C864.276 629.475 873.016 620.782 877.432 622.111C878.323 622.379 879.432 623.153 879.638 625.325C881.384 643.418 883.775 673.172 886.307 704.672C890.066 751.442 894.325 804.428 895.724 807.765C895.831 807.914 895.895 808.091 895.909 808.274C895.922 808.457 895.885 808.641 895.801 808.804C895.717 808.968 895.59 809.105 895.433 809.201C895.276 809.297 895.096 809.348 894.912 809.348Z" fill="#494949"/>
    <path d="M875.077 658.688C891.671 645.386 897.17 624.683 887.361 612.445C877.552 600.208 856.148 601.07 839.554 614.372C822.96 627.673 817.46 648.376 827.27 660.614C837.079 672.851 858.483 671.989 875.077 658.688Z" fill="#0CBC8B"/>
    <path opacity="0.2" d="M875.077 658.688C891.671 645.386 897.17 624.683 887.361 612.445C877.552 600.208 856.148 601.07 839.554 614.372C822.96 627.673 817.46 648.376 827.27 660.614C837.079 672.851 858.483 671.989 875.077 658.688Z" fill="white"/>
    <path d="M831.922 663.727C831.827 663.727 831.734 663.7 831.654 663.649C831.574 663.598 831.511 663.525 831.47 663.439C831.43 663.353 831.415 663.258 831.427 663.164C831.439 663.07 831.478 662.981 831.538 662.908L878.829 605.879C878.87 605.827 878.922 605.784 878.98 605.752C879.039 605.721 879.103 605.701 879.169 605.694C879.235 605.688 879.302 605.694 879.365 605.713C879.429 605.733 879.488 605.765 879.539 605.807C879.59 605.849 879.632 605.902 879.663 605.961C879.693 606.02 879.712 606.084 879.717 606.15C879.723 606.216 879.715 606.283 879.695 606.346C879.674 606.409 879.641 606.468 879.598 606.518L832.307 663.547C832.26 663.603 832.201 663.649 832.135 663.68C832.068 663.711 831.995 663.727 831.922 663.727Z" fill="white"/>
    <path d="M905.227 797.123C905.067 797.123 904.91 797.085 904.768 797.012C904.626 796.939 904.504 796.833 904.411 796.703C904.319 796.572 904.259 796.422 904.236 796.264C904.214 796.106 904.229 795.945 904.282 795.794L922.046 744.707C922.569 743.206 923.46 741.86 924.638 740.793C925.816 739.725 927.243 738.971 928.788 738.598C930.333 738.225 931.948 738.245 933.483 738.658C935.018 739.071 936.425 739.862 937.575 740.959L946.966 749.93C947.158 750.113 947.269 750.365 947.275 750.631C947.281 750.896 947.182 751.153 946.998 751.345C946.815 751.536 946.563 751.648 946.298 751.654C946.033 751.66 945.776 751.56 945.584 751.377L936.193 742.405C935.285 741.539 934.174 740.915 932.963 740.589C931.751 740.264 930.477 740.248 929.257 740.542C928.037 740.837 926.911 741.432 925.981 742.275C925.052 743.117 924.348 744.179 923.935 745.364L906.171 796.451C906.103 796.647 905.975 796.817 905.806 796.938C905.637 797.058 905.435 797.123 905.227 797.123Z" fill="#494949"/>
    <path d="M973.204 778.216C985.502 768.482 984.771 747.073 971.572 730.397C958.373 713.722 937.704 708.095 925.406 717.829C913.109 727.563 913.84 748.972 927.039 765.647C940.238 782.323 960.907 787.95 973.204 778.216Z" fill="#0CBC8B"/>
    <path d="M886.842 806.091C886.617 806.091 886.399 806.015 886.223 805.876C886.046 805.736 885.922 805.542 885.87 805.323L856.06 680.678C855.856 679.828 855.422 679.051 854.805 678.433C854.189 677.814 853.413 677.377 852.564 677.17C851.715 676.964 850.826 676.995 849.994 677.261C849.161 677.527 848.419 678.017 847.847 678.678L838.658 689.298C838.484 689.499 838.238 689.622 837.974 689.641C837.709 689.66 837.448 689.574 837.247 689.4C837.046 689.226 836.923 688.98 836.904 688.716C836.885 688.451 836.971 688.19 837.145 687.989L846.335 677.37C847.148 676.431 848.203 675.734 849.386 675.356C850.569 674.978 851.834 674.934 853.04 675.229C854.246 675.523 855.348 676.145 856.224 677.025C857.1 677.905 857.716 679.01 858.005 680.218L887.816 804.862C887.846 804.99 887.852 805.122 887.831 805.252C887.81 805.382 887.764 805.506 887.695 805.618C887.626 805.73 887.536 805.827 887.43 805.904C887.323 805.981 887.203 806.037 887.075 806.067C886.999 806.084 886.92 806.092 886.842 806.091Z" fill="#494949"/>
    <path d="M875.848 716.988C879.472 696.032 869.881 676.878 854.427 674.205C838.973 671.533 823.507 686.354 819.883 707.31C816.259 728.266 825.849 747.421 841.304 750.093C856.758 752.766 872.224 737.944 875.848 716.988Z" fill="#0CBC8B"/>
    <path d="M894.914 809.348C894.873 809.348 894.831 809.346 894.79 809.341C894.66 809.325 894.534 809.283 894.42 809.219C894.305 809.154 894.205 809.067 894.124 808.964C894.043 808.86 893.984 808.742 893.949 808.615C893.914 808.489 893.904 808.356 893.92 808.226L912.956 653.669C913.163 651.985 913.852 650.397 914.941 649.096C916.029 647.795 917.47 646.835 919.09 646.333C920.71 645.831 922.441 645.808 924.075 646.266C925.708 646.724 927.174 647.644 928.297 648.916L950.055 673.559C950.142 673.658 950.209 673.772 950.251 673.896C950.294 674.021 950.312 674.152 950.303 674.283C950.295 674.414 950.261 674.543 950.204 674.661C950.146 674.779 950.065 674.884 949.967 674.971C949.869 675.058 949.754 675.125 949.63 675.167C949.505 675.21 949.374 675.228 949.243 675.219C949.112 675.211 948.983 675.177 948.865 675.12C948.747 675.062 948.642 674.981 948.555 674.883L926.8 650.24C925.932 649.257 924.799 648.546 923.537 648.192C922.274 647.837 920.937 647.855 919.684 648.243C918.432 648.631 917.318 649.373 916.477 650.379C915.636 651.384 915.103 652.612 914.943 653.913L895.905 808.47C895.875 808.712 895.758 808.935 895.576 809.096C895.393 809.258 895.158 809.348 894.914 809.348Z" fill="#494949"/>
    <path d="M972.37 687.254C979.962 673.53 971.03 654.06 952.42 643.766C933.811 633.472 912.571 636.253 904.979 649.977C897.388 663.701 906.32 683.171 924.929 693.465C943.539 703.759 964.779 700.978 972.37 687.254Z" fill="#0CBC8B"/>
    <path opacity="0.2" d="M973.204 778.216C985.502 768.482 984.771 747.073 971.572 730.397C958.373 713.722 937.704 708.095 925.406 717.829C913.109 727.563 913.84 748.972 927.039 765.647C940.238 782.323 960.907 787.95 973.204 778.216Z" fill="white"/>
    <path opacity="0.5" d="M875.848 716.988C879.472 696.032 869.881 676.878 854.427 674.205C838.973 671.533 823.507 686.354 819.883 707.31C816.259 728.266 825.849 747.421 841.304 750.093C856.758 752.766 872.224 737.944 875.848 716.988Z" fill="white"/>
    <path opacity="0.5" d="M972.37 687.254C979.962 673.53 971.03 654.06 952.42 643.766C933.811 633.472 912.571 636.253 904.979 649.977C897.388 663.701 906.32 683.171 924.929 693.465C943.539 703.759 964.779 700.978 972.37 687.254Z" fill="white"/>
    <path d="M919.26 940.49H870.564L862.495 784.686H927.33L919.26 940.49Z" fill="#292A2E"/>
    <path opacity="0.3" d="M919.26 940.49H870.564L862.495 784.686H927.33L919.26 940.49Z" fill="white"/>
    <path d="M973.206 778.71C973.13 778.71 973.056 778.693 972.988 778.66C972.92 778.627 972.86 778.579 972.813 778.52L925.013 718.134C924.972 718.082 924.942 718.023 924.924 717.96C924.906 717.897 924.901 717.831 924.908 717.766C924.916 717.701 924.936 717.637 924.968 717.58C925 717.523 925.043 717.472 925.094 717.431C925.146 717.391 925.205 717.36 925.268 717.343C925.331 717.325 925.397 717.319 925.463 717.327C925.528 717.334 925.591 717.355 925.648 717.387C925.706 717.419 925.756 717.461 925.797 717.513L973.6 777.9C973.682 778.004 973.719 778.136 973.704 778.267C973.689 778.398 973.622 778.518 973.519 778.6C973.43 778.671 973.32 778.71 973.206 778.71Z" fill="white"/>
    <path d="M969.192 692.092C969.086 692.091 968.983 692.056 968.898 691.992L907.731 647.33C907.678 647.291 907.633 647.242 907.599 647.186C907.565 647.13 907.542 647.068 907.532 647.003C907.522 646.938 907.524 646.872 907.54 646.808C907.555 646.744 907.583 646.684 907.622 646.631C907.661 646.578 907.71 646.533 907.766 646.499C907.822 646.465 907.884 646.442 907.949 646.432C908.014 646.422 908.08 646.424 908.144 646.44C908.208 646.455 908.268 646.483 908.321 646.522L969.487 691.185C969.571 691.248 969.632 691.335 969.664 691.435C969.695 691.534 969.695 691.641 969.662 691.741C969.63 691.84 969.567 691.927 969.482 691.988C969.398 692.05 969.297 692.084 969.192 692.085V692.092Z" fill="white"/>
    <path d="M838.817 749.441C838.774 749.441 838.73 749.435 838.688 749.424C838.56 749.39 838.451 749.306 838.384 749.191C838.318 749.077 838.3 748.94 838.334 748.812L857.806 675.859C857.843 675.734 857.927 675.629 858.041 675.565C858.154 675.501 858.288 675.485 858.414 675.518C858.54 675.551 858.648 675.633 858.714 675.744C858.781 675.856 858.802 675.989 858.772 676.116L839.3 749.07C839.272 749.176 839.209 749.27 839.122 749.338C839.034 749.405 838.927 749.441 838.817 749.441Z" fill="white"/>
    <path d="M180.859 631.721H100.533V655.093H180.859V631.721Z" fill="#F4F4F4"/>
    <path opacity="0.05" d="M121.845 631.721H111.32V655.093H121.845V631.721Z" fill="#292A2E"/>
    <path d="M170.595 636.801H126.831V650.651H170.595V636.801Z" fill="white"/>
    <path d="M244.93 634.77L170.293 602.171L160.938 623.59L235.575 656.188L244.93 634.77Z" fill="#F4F4F4"/>
    <path opacity="0.05" d="M244.93 634.77L170.293 602.171L160.938 623.59L235.575 656.188L244.93 634.77Z" fill="#292A2E"/>
    <path d="M234.907 630.392L225.127 626.121L215.772 647.539L225.552 651.81L234.907 630.392Z" fill="white"/>
    <path d="M218.461 628.752L177.798 610.992L172.254 623.684L212.918 641.444L218.461 628.752Z" fill="white"/>
    <path opacity="0.05" d="M245.07 927.797H224.884V941.278H245.07V927.797Z" fill="#292A2E"/>
    <path opacity="0.05" d="M38.6899 927.797H18.5039V941.278H38.6899V927.797Z" fill="#292A2E"/>
    <path d="M263.574 656.189H0V927.341H263.574V656.189Z" fill="#F4F4F4"/>
    <path opacity="0.03" d="M263.574 656.189H0V927.341H263.574V656.189Z" fill="#292A2E"/>
    <path d="M312.418 656.189H48.844V927.341H312.418V656.189Z" fill="#F4F4F4"/>
    <path opacity="0.05" d="M293.915 927.797H273.729V941.278H293.915V927.797Z" fill="#292A2E"/>
    <path opacity="0.05" d="M87.534 927.797H67.348V941.278H87.534V927.797Z" fill="#292A2E"/>
    <path opacity="0.7" d="M302.525 668.888H58.739V720.982H302.525V668.888Z" fill="white"/>
    <path opacity="0.7" d="M302.525 733.733H58.739V785.827H302.525V733.733Z" fill="white"/>
    <path opacity="0.7" d="M302.525 798.576H58.739V850.67H302.525V798.576Z" fill="white"/>
    <path opacity="0.05" d="M180.632 702.224C184.658 702.224 187.921 698.961 187.921 694.935C187.921 690.909 184.658 687.646 180.632 687.646C176.606 687.646 173.343 690.909 173.343 694.935C173.343 698.961 176.606 702.224 180.632 702.224Z" fill="#292A2E"/>
    <path opacity="0.05" d="M180.632 767.069C184.658 767.069 187.921 763.806 187.921 759.78C187.921 755.754 184.658 752.491 180.632 752.491C176.606 752.491 173.343 755.754 173.343 759.78C173.343 763.806 176.606 767.069 180.632 767.069Z" fill="#292A2E"/>
    <path opacity="0.05" d="M180.632 831.913C184.658 831.913 187.921 828.65 187.921 824.624C187.921 820.598 184.658 817.335 180.632 817.335C176.606 817.335 173.343 820.598 173.343 824.624C173.343 828.65 176.606 831.913 180.632 831.913Z" fill="#292A2E"/>
    <path opacity="0.7" d="M302.525 864.882H58.739V916.976H302.525V864.882Z" fill="white"/>
    <path opacity="0.05" d="M180.632 898.218C184.658 898.218 187.921 894.955 187.921 890.929C187.921 886.903 184.658 883.64 180.632 883.64C176.606 883.64 173.343 886.903 173.343 890.929C173.343 894.955 176.606 898.218 180.632 898.218Z" fill="#292A2E"/>
    <path d="M636.745 724.626H119.73C112.752 724.626 106.059 721.854 101.125 716.919C96.1901 711.985 93.418 705.292 93.418 698.314L111.418 114.68H680.057L663.057 698.314C663.057 705.292 660.285 711.985 655.35 716.919C650.416 721.854 643.723 724.626 636.745 724.626Z" fill="#292A2E"/>
    <path opacity="0.9" d="M636.745 724.626H119.73C112.752 724.626 106.059 721.854 101.125 716.919C96.1901 711.985 93.418 705.292 93.418 698.314L111.418 114.68H680.057L663.057 698.314C663.057 705.292 660.285 711.985 655.35 716.919C650.416 721.854 643.723 724.626 636.745 724.626Z" fill="white"/>
    <path d="M636.745 725.626H119.73C112.489 725.618 105.547 722.738 100.426 717.618C95.3058 712.497 92.4255 705.555 92.417 698.314L110.417 113.68H681.057L664.057 698.314C664.049 705.555 661.169 712.497 656.048 717.617C650.928 722.738 643.986 725.618 636.745 725.626ZM112.417 115.68L94.417 698.314C94.4247 705.025 97.0941 711.459 101.84 716.204C106.585 720.95 113.019 723.619 119.73 723.626H636.745C643.456 723.618 649.89 720.949 654.635 716.204C659.38 711.459 662.049 705.025 662.057 698.314L679.057 115.68H112.417Z" fill="#292A2E"/>
    <path d="M655.745 56.811H138.73C131.489 56.8192 124.547 59.6994 119.426 64.8195C114.306 69.9397 111.425 76.8819 111.417 84.123L110.417 115.68H681.057L683.057 84.123C683.049 76.882 680.169 69.9398 675.048 64.8196C669.928 59.6994 662.986 56.8192 655.745 56.811Z" fill="#0C0C0C"/>
    <path d="M665.745 56.811H142.73C135.489 56.8192 128.547 59.6994 123.426 64.8195C118.306 69.9397 115.425 76.8819 115.417 84.123V115.68H693.057V84.123C693.049 76.882 690.169 69.9398 685.048 64.8196C679.928 59.6994 672.986 56.8192 665.745 56.811Z" fill="#292A2E"/>
    <path d="M116.418 114.68H692.058V708.314C692.058 715.292 689.286 721.985 684.351 726.919C679.417 731.854 672.724 734.626 665.746 734.626H142.73C135.752 734.626 129.059 731.854 124.125 726.919C119.19 721.985 116.418 715.292 116.418 708.314V114.68Z" fill="white"/>
    <path d="M665.745 735.626H142.73C135.489 735.618 128.547 732.738 123.426 727.618C118.306 722.497 115.425 715.555 115.417 708.314V113.68H693.057V708.314C693.049 715.555 690.169 722.497 685.048 727.617C679.928 732.738 672.986 735.618 665.745 735.626ZM117.417 115.68V708.314C117.425 715.025 120.094 721.459 124.84 726.204C129.585 730.95 136.019 733.619 142.73 733.626H665.745C672.456 733.618 678.89 730.949 683.635 726.204C688.38 721.459 691.049 715.025 691.057 708.314V115.68H117.417Z" fill="#292A2E"/>
    <path d="M185.587 33.176C179.321 33.1832 173.313 35.6756 168.882 40.1064C164.452 44.5373 161.959 50.5448 161.952 56.811H163.952C163.951 52.6589 165.145 48.5942 167.391 45.1021C169.637 41.6099 172.841 38.8379 176.619 37.1167C180.398 35.3956 184.592 34.7981 188.701 35.3955C192.81 35.9929 196.66 37.76 199.792 40.4859C202.924 43.2118 205.206 46.7814 206.365 50.7686C207.523 54.7558 207.51 58.9921 206.327 62.9721C205.144 66.9521 202.84 70.5075 199.691 73.214C196.543 75.9206 192.682 77.6639 188.569 78.236C188.223 77.522 187.632 76.9555 186.904 76.6391C186.176 76.3227 185.359 76.2772 184.601 76.5108C183.843 76.7445 183.193 77.2419 182.769 77.9131C182.346 78.5842 182.176 79.3848 182.292 80.17C182.407 80.9552 182.8 81.6731 183.399 82.1939C183.997 82.7147 184.763 83.004 185.557 83.0095C186.35 83.0149 187.119 82.7361 187.725 82.2236C188.331 81.711 188.734 80.9986 188.86 80.215C194.787 79.3875 200.18 76.342 203.949 71.6933C207.719 67.0446 209.584 61.139 209.168 55.1686C208.753 49.1982 206.088 43.6078 201.711 39.5259C197.334 35.444 191.572 33.1747 185.587 33.176Z" fill="#F4F4F4"/>
    <path d="M646.523 56.811C646.482 50.5691 643.974 44.5967 639.546 40.1973C635.118 35.7979 629.13 33.3287 622.888 33.3287C616.646 33.3287 610.657 35.7979 606.229 40.1973C601.801 44.5967 599.293 50.5691 599.252 56.811H601.252C601.251 52.6589 602.445 48.5942 604.691 45.102C606.937 41.6099 610.141 38.8379 613.919 37.1167C617.698 35.3956 621.892 34.7981 626.001 35.3955C630.11 35.9929 633.96 37.76 637.092 40.4859C640.224 43.2118 642.506 46.7814 643.665 50.7686C644.823 54.7557 644.81 58.9921 643.627 62.9721C642.444 66.952 640.14 70.5075 636.991 73.214C633.843 75.9206 629.982 77.6639 625.869 78.236C625.523 77.522 624.932 76.9555 624.204 76.6391C623.476 76.3226 622.659 76.2771 621.901 76.5108C621.143 76.7445 620.493 77.2419 620.069 77.913C619.646 78.5842 619.476 79.3848 619.592 80.1699C619.707 80.9551 620.1 81.6731 620.699 82.1939C621.298 82.7147 622.063 83.004 622.857 83.0094C623.65 83.0149 624.42 82.7361 625.025 82.2236C625.631 81.711 626.034 80.9985 626.16 80.215C631.803 79.4192 636.97 76.6139 640.711 72.3144C644.452 68.0149 646.515 62.51 646.523 56.811Z" fill="#F4F4F4"/>
    <path d="M584.051 56.811C584.051 50.5426 581.561 44.531 577.128 40.0986C572.696 35.6661 566.684 33.176 560.416 33.176C554.148 33.176 548.136 35.6661 543.704 40.0986C539.271 44.531 536.781 50.5426 536.781 56.811H538.781C538.78 52.6593 539.974 48.595 542.22 45.1033C544.467 41.6116 547.67 38.8399 551.448 37.119C555.226 35.398 559.42 34.8006 563.529 35.3979C567.637 35.9952 571.487 37.762 574.619 40.4875C577.751 43.2131 580.032 46.7822 581.191 50.7689C582.35 54.7556 582.337 58.9916 581.154 62.9713C579.972 66.951 577.669 70.5063 574.521 73.213C571.373 75.9197 567.512 77.6634 563.4 78.236C563.054 77.5213 562.463 76.954 561.735 76.6369C561.007 76.3198 560.19 76.2737 559.43 76.5071C558.671 76.7405 558.021 77.2378 557.597 77.9092C557.172 78.5806 557.002 79.3816 557.118 80.1674C557.233 80.9532 557.625 81.6718 558.224 82.1932C558.823 82.7146 559.589 83.0045 560.383 83.0102C561.178 83.016 561.948 82.7373 562.554 82.2246C563.161 81.7119 563.563 80.999 563.69 80.215C569.333 79.4188 574.499 76.6133 578.239 72.3138C581.98 68.0144 584.043 62.5098 584.051 56.811Z" fill="#F4F4F4"/>
    <path d="M521.58 56.811C521.54 50.5691 519.031 44.5967 514.603 40.1973C510.175 35.7979 504.187 33.3287 497.945 33.3287C491.703 33.3287 485.714 35.7979 481.286 40.1973C476.858 44.5967 474.35 50.5691 474.309 56.811H476.309C476.308 52.6589 477.502 48.5942 479.748 45.102C481.994 41.6099 485.198 38.8379 488.977 37.1167C492.755 35.3956 496.949 34.7981 501.058 35.3955C505.167 35.9929 509.017 37.76 512.149 40.4859C515.281 43.2118 517.563 46.7814 518.722 50.7686C519.88 54.7557 519.867 58.9921 518.684 62.9721C517.501 66.952 515.197 70.5075 512.048 73.214C508.9 75.9206 505.039 77.6639 500.926 78.236C500.58 77.522 499.989 76.9555 499.261 76.6391C498.534 76.3226 497.716 76.2771 496.958 76.5108C496.2 76.7445 495.55 77.2419 495.126 77.913C494.703 78.5842 494.533 79.3848 494.649 80.1699C494.764 80.9551 495.157 81.6731 495.756 82.1939C496.355 82.7147 497.12 83.004 497.914 83.0094C498.707 83.0149 499.477 82.7361 500.082 82.2236C500.688 81.711 501.091 80.9985 501.217 80.215C506.86 79.4192 512.027 76.6139 515.768 72.3144C519.508 68.0149 521.572 62.51 521.58 56.811Z" fill="#F4F4F4"/>
    <path d="M459.108 56.811C459.108 53.7072 458.497 50.6338 457.309 47.7663C456.121 44.8988 454.38 42.2933 452.185 40.0986C449.991 37.9038 447.385 36.1629 444.518 34.9751C441.65 33.7874 438.577 33.176 435.473 33.176C432.369 33.176 429.296 33.7874 426.428 34.9751C423.561 36.1629 420.955 37.9038 418.761 40.0986C416.566 42.2933 414.825 44.8988 413.637 47.7663C412.449 50.6338 411.838 53.7072 411.838 56.811H413.838C413.837 52.6592 415.031 48.5948 417.277 45.103C419.524 41.6112 422.727 38.8395 426.505 37.1186C430.284 35.3976 434.478 34.8002 438.586 35.3977C442.695 35.9951 446.545 37.7621 449.677 40.4878C452.808 43.2136 455.09 46.7828 456.248 50.7697C457.407 54.7566 457.394 58.9927 456.211 62.9724C455.028 66.9521 452.725 70.5074 449.576 73.2139C446.428 75.9204 442.567 77.6638 438.455 78.236C438.109 77.522 437.518 76.9555 436.79 76.6391C436.062 76.3227 435.245 76.2772 434.487 76.5108C433.728 76.7445 433.079 77.2419 432.655 77.9131C432.232 78.5842 432.062 79.3848 432.178 80.17C432.293 80.9552 432.686 81.6731 433.285 82.1939C433.883 82.7147 434.649 83.004 435.443 83.0095C436.236 83.0149 437.005 82.7361 437.611 82.2236C438.217 81.711 438.62 80.9986 438.746 80.215C444.389 79.419 449.555 76.6136 453.296 72.3141C457.037 68.0147 459.1 62.5099 459.108 56.811Z" fill="#F4F4F4"/>
    <path d="M396.637 56.811C396.596 50.5691 394.088 44.5967 389.66 40.1973C385.232 35.7979 379.243 33.3287 373.001 33.3287C366.759 33.3287 360.771 35.7979 356.343 40.1973C351.915 44.5967 349.407 50.5691 349.366 56.811H351.366C351.365 52.6589 352.559 48.5942 354.805 45.102C357.051 41.6099 360.255 38.8379 364.033 37.1167C367.812 35.3956 372.006 34.7981 376.115 35.3955C380.224 35.9929 384.074 37.76 387.206 40.4859C390.338 43.2118 392.62 46.7814 393.778 50.7686C394.937 54.7557 394.924 58.9921 393.741 62.9721C392.558 66.952 390.254 70.5075 387.105 73.214C383.957 75.9206 380.096 77.6639 375.983 78.236C375.637 77.522 375.046 76.9555 374.318 76.6391C373.59 76.3226 372.773 76.2771 372.015 76.5108C371.256 76.7445 370.607 77.2419 370.183 77.913C369.76 78.5842 369.59 79.3848 369.706 80.1699C369.821 80.9551 370.214 81.6731 370.813 82.1939C371.411 82.7147 372.177 83.004 372.97 83.0094C373.764 83.0149 374.533 82.7361 375.139 82.2236C375.745 81.711 376.148 80.9985 376.274 80.215C381.917 79.4192 387.084 76.6139 390.825 72.3144C394.565 68.0149 396.629 62.51 396.637 56.811Z" fill="#F4F4F4"/>
    <path d="M334.165 56.811C334.165 50.5426 331.675 44.531 327.242 40.0986C322.81 35.6661 316.798 33.176 310.53 33.176C304.262 33.176 298.25 35.6661 293.818 40.0986C289.385 44.531 286.895 50.5426 286.895 56.811H288.895C288.894 52.6592 290.088 48.5948 292.334 45.103C294.581 41.6112 297.784 38.8395 301.562 37.1186C305.341 35.3976 309.535 34.8002 313.643 35.3977C317.752 35.9951 321.602 37.7621 324.734 40.4878C327.865 43.2136 330.147 46.7828 331.305 50.7697C332.464 54.7566 332.451 58.9927 331.268 62.9724C330.085 66.9521 327.782 70.5074 324.633 73.2139C321.485 75.9204 317.624 77.6638 313.512 78.236C313.166 77.522 312.575 76.9555 311.847 76.6391C311.119 76.3227 310.302 76.2772 309.544 76.5108C308.785 76.7445 308.136 77.2419 307.712 77.9131C307.289 78.5842 307.119 79.3848 307.235 80.17C307.35 80.9552 307.743 81.6731 308.342 82.1939C308.94 82.7147 309.706 83.004 310.5 83.0095C311.293 83.0149 312.063 82.7361 312.668 82.2236C313.274 81.711 313.677 80.9986 313.803 80.215C319.446 79.419 324.612 76.6136 328.353 72.3141C332.094 68.0147 334.157 62.5099 334.165 56.811Z" fill="#F4F4F4"/>
    <path d="M271.694 56.811C271.653 50.5691 269.145 44.5967 264.717 40.1973C260.289 35.7979 254.301 33.3287 248.059 33.3287C241.817 33.3287 235.828 35.7979 231.4 40.1973C226.972 44.5967 224.464 50.5691 224.423 56.811H226.423C226.422 52.6589 227.616 48.5942 229.862 45.102C232.108 41.6099 235.312 38.8379 239.091 37.1167C242.869 35.3956 247.063 34.7981 251.172 35.3955C255.281 35.9929 259.131 37.76 262.263 40.4859C265.395 43.2118 267.677 46.7814 268.836 50.7686C269.994 54.7557 269.981 58.9921 268.798 62.9721C267.615 66.952 265.311 70.5075 262.162 73.214C259.014 75.9206 255.153 77.6639 251.04 78.236C250.694 77.522 250.103 76.9555 249.375 76.6391C248.647 76.3226 247.83 76.2771 247.072 76.5108C246.314 76.7445 245.664 77.2419 245.24 77.913C244.817 78.5842 244.647 79.3848 244.763 80.1699C244.878 80.9551 245.271 81.6731 245.87 82.1939C246.469 82.7147 247.234 83.004 248.028 83.0094C248.821 83.0149 249.591 82.7361 250.196 82.2236C250.802 81.711 251.205 80.9985 251.331 80.215C256.974 79.4192 262.141 76.6139 265.882 72.3144C269.623 68.0149 271.686 62.51 271.694 56.811Z" fill="#F4F4F4"/>
    <g opacity="0.6">
        <path d="M185.587 33.176C179.321 33.1832 173.313 35.6756 168.882 40.1064C164.452 44.5373 161.959 50.5448 161.952 56.811H163.952C163.951 52.6589 165.145 48.5942 167.391 45.1021C169.637 41.6099 172.841 38.8379 176.619 37.1167C180.398 35.3956 184.592 34.7981 188.701 35.3955C192.81 35.9929 196.66 37.76 199.792 40.4859C202.924 43.2118 205.206 46.7814 206.365 50.7686C207.523 54.7558 207.51 58.9921 206.327 62.9721C205.144 66.9521 202.84 70.5075 199.691 73.214C196.543 75.9206 192.682 77.6639 188.569 78.236C188.223 77.522 187.632 76.9555 186.904 76.6391C186.176 76.3227 185.359 76.2772 184.601 76.5108C183.843 76.7445 183.193 77.2419 182.769 77.9131C182.346 78.5842 182.176 79.3848 182.292 80.17C182.407 80.9552 182.8 81.6731 183.399 82.1939C183.997 82.7147 184.763 83.004 185.557 83.0095C186.35 83.0149 187.119 82.7361 187.725 82.2236C188.331 81.711 188.734 80.9986 188.86 80.215C194.787 79.3875 200.18 76.342 203.949 71.6933C207.719 67.0446 209.584 61.139 209.168 55.1686C208.753 49.1982 206.088 43.6078 201.711 39.5259C197.334 35.444 191.572 33.1747 185.587 33.176Z" fill="#292A2E"/>
        <path d="M646.523 56.811C646.482 50.5691 643.974 44.5967 639.546 40.1973C635.118 35.7979 629.13 33.3287 622.888 33.3287C616.646 33.3287 610.657 35.7979 606.229 40.1973C601.801 44.5967 599.293 50.5691 599.252 56.811H601.252C601.251 52.6589 602.445 48.5942 604.691 45.102C606.937 41.6099 610.141 38.8379 613.919 37.1167C617.698 35.3956 621.892 34.7981 626.001 35.3955C630.11 35.9929 633.96 37.76 637.092 40.4859C640.224 43.2118 642.506 46.7814 643.665 50.7686C644.823 54.7557 644.81 58.9921 643.627 62.9721C642.444 66.952 640.14 70.5075 636.991 73.214C633.843 75.9206 629.982 77.6639 625.869 78.236C625.523 77.522 624.932 76.9555 624.204 76.6391C623.476 76.3226 622.659 76.2771 621.901 76.5108C621.143 76.7445 620.493 77.2419 620.069 77.913C619.646 78.5842 619.476 79.3848 619.592 80.1699C619.707 80.9551 620.1 81.6731 620.699 82.1939C621.298 82.7147 622.063 83.004 622.857 83.0094C623.65 83.0149 624.42 82.7361 625.025 82.2236C625.631 81.711 626.034 80.9985 626.16 80.215C631.803 79.4192 636.97 76.6139 640.711 72.3144C644.452 68.0149 646.515 62.51 646.523 56.811Z" fill="#292A2E"/>
        <path d="M584.051 56.811C584.051 50.5426 581.561 44.531 577.128 40.0986C572.696 35.6661 566.684 33.176 560.416 33.176C554.148 33.176 548.136 35.6661 543.704 40.0986C539.271 44.531 536.781 50.5426 536.781 56.811H538.781C538.78 52.6593 539.974 48.595 542.22 45.1033C544.467 41.6116 547.67 38.8399 551.448 37.119C555.226 35.398 559.42 34.8006 563.529 35.3979C567.637 35.9952 571.487 37.762 574.619 40.4875C577.751 43.2131 580.032 46.7822 581.191 50.7689C582.35 54.7556 582.337 58.9916 581.154 62.9713C579.972 66.951 577.669 70.5063 574.521 73.213C571.373 75.9197 567.512 77.6634 563.4 78.236C563.054 77.5213 562.463 76.954 561.735 76.6369C561.007 76.3198 560.19 76.2737 559.43 76.5071C558.671 76.7405 558.021 77.2378 557.597 77.9092C557.172 78.5806 557.002 79.3816 557.118 80.1674C557.233 80.9532 557.625 81.6718 558.224 82.1932C558.823 82.7146 559.589 83.0045 560.383 83.0102C561.178 83.016 561.948 82.7373 562.554 82.2246C563.161 81.7119 563.563 80.999 563.69 80.215C569.333 79.4188 574.499 76.6133 578.239 72.3138C581.98 68.0144 584.043 62.5098 584.051 56.811Z" fill="#292A2E"/>
        <path d="M521.58 56.811C521.54 50.5691 519.031 44.5967 514.603 40.1973C510.175 35.7979 504.187 33.3287 497.945 33.3287C491.703 33.3287 485.714 35.7979 481.286 40.1973C476.858 44.5967 474.35 50.5691 474.309 56.811H476.309C476.308 52.6589 477.502 48.5942 479.748 45.102C481.994 41.6099 485.198 38.8379 488.977 37.1167C492.755 35.3956 496.949 34.7981 501.058 35.3955C505.167 35.9929 509.017 37.76 512.149 40.4859C515.281 43.2118 517.563 46.7814 518.722 50.7686C519.88 54.7557 519.867 58.9921 518.684 62.9721C517.501 66.952 515.197 70.5075 512.048 73.214C508.9 75.9206 505.039 77.6639 500.926 78.236C500.58 77.522 499.989 76.9555 499.261 76.6391C498.534 76.3226 497.716 76.2771 496.958 76.5108C496.2 76.7445 495.55 77.2419 495.126 77.913C494.703 78.5842 494.533 79.3848 494.649 80.1699C494.764 80.9551 495.157 81.6731 495.756 82.1939C496.355 82.7147 497.12 83.004 497.914 83.0094C498.707 83.0149 499.477 82.7361 500.082 82.2236C500.688 81.711 501.091 80.9985 501.217 80.215C506.86 79.4192 512.027 76.6139 515.768 72.3144C519.508 68.0149 521.572 62.51 521.58 56.811Z" fill="#292A2E"/>
        <path d="M459.108 56.811C459.108 53.7072 458.497 50.6338 457.309 47.7663C456.121 44.8988 454.38 42.2933 452.185 40.0986C449.991 37.9038 447.385 36.1629 444.518 34.9751C441.65 33.7874 438.577 33.176 435.473 33.176C432.369 33.176 429.296 33.7874 426.428 34.9751C423.561 36.1629 420.955 37.9038 418.761 40.0986C416.566 42.2933 414.825 44.8988 413.637 47.7663C412.449 50.6338 411.838 53.7072 411.838 56.811H413.838C413.837 52.6592 415.031 48.5948 417.277 45.103C419.524 41.6112 422.727 38.8395 426.505 37.1186C430.284 35.3976 434.478 34.8002 438.586 35.3977C442.695 35.9951 446.545 37.7621 449.677 40.4878C452.808 43.2136 455.09 46.7828 456.248 50.7697C457.407 54.7566 457.394 58.9927 456.211 62.9724C455.028 66.9521 452.725 70.5074 449.576 73.2139C446.428 75.9204 442.567 77.6638 438.455 78.236C438.109 77.522 437.518 76.9555 436.79 76.6391C436.062 76.3227 435.245 76.2772 434.487 76.5108C433.728 76.7445 433.079 77.2419 432.655 77.9131C432.232 78.5842 432.062 79.3848 432.178 80.17C432.293 80.9552 432.686 81.6731 433.285 82.1939C433.883 82.7147 434.649 83.004 435.443 83.0095C436.236 83.0149 437.005 82.7361 437.611 82.2236C438.217 81.711 438.62 80.9986 438.746 80.215C444.389 79.419 449.555 76.6136 453.296 72.3141C457.037 68.0147 459.1 62.5099 459.108 56.811Z" fill="#292A2E"/>
        <path d="M396.637 56.811C396.596 50.5691 394.088 44.5967 389.66 40.1973C385.232 35.7979 379.243 33.3287 373.001 33.3287C366.759 33.3287 360.771 35.7979 356.343 40.1973C351.915 44.5967 349.407 50.5691 349.366 56.811H351.366C351.365 52.6589 352.559 48.5942 354.805 45.102C357.051 41.6099 360.255 38.8379 364.033 37.1167C367.812 35.3956 372.006 34.7981 376.115 35.3955C380.224 35.9929 384.074 37.76 387.206 40.4859C390.338 43.2118 392.62 46.7814 393.778 50.7686C394.937 54.7557 394.924 58.9921 393.741 62.9721C392.558 66.952 390.254 70.5075 387.105 73.214C383.957 75.9206 380.096 77.6639 375.983 78.236C375.637 77.522 375.046 76.9555 374.318 76.6391C373.59 76.3226 372.773 76.2771 372.015 76.5108C371.256 76.7445 370.607 77.2419 370.183 77.913C369.76 78.5842 369.59 79.3848 369.706 80.1699C369.821 80.9551 370.214 81.6731 370.813 82.1939C371.411 82.7147 372.177 83.004 372.97 83.0094C373.764 83.0149 374.533 82.7361 375.139 82.2236C375.745 81.711 376.148 80.9985 376.274 80.215C381.917 79.4192 387.084 76.6139 390.825 72.3144C394.565 68.0149 396.629 62.51 396.637 56.811Z" fill="#292A2E"/>
        <path d="M334.165 56.811C334.165 50.5426 331.675 44.531 327.242 40.0986C322.81 35.6661 316.798 33.176 310.53 33.176C304.262 33.176 298.25 35.6661 293.818 40.0986C289.385 44.531 286.895 50.5426 286.895 56.811H288.895C288.894 52.6592 290.088 48.5948 292.334 45.103C294.581 41.6112 297.784 38.8395 301.562 37.1186C305.341 35.3976 309.535 34.8002 313.643 35.3977C317.752 35.9951 321.602 37.7621 324.734 40.4878C327.865 43.2136 330.147 46.7828 331.305 50.7697C332.464 54.7566 332.451 58.9927 331.268 62.9724C330.085 66.9521 327.782 70.5074 324.633 73.2139C321.485 75.9204 317.624 77.6638 313.512 78.236C313.166 77.522 312.575 76.9555 311.847 76.6391C311.119 76.3227 310.302 76.2772 309.544 76.5108C308.785 76.7445 308.136 77.2419 307.712 77.9131C307.289 78.5842 307.119 79.3848 307.235 80.17C307.35 80.9552 307.743 81.6731 308.342 82.1939C308.94 82.7147 309.706 83.004 310.5 83.0095C311.293 83.0149 312.063 82.7361 312.668 82.2236C313.274 81.711 313.677 80.9986 313.803 80.215C319.446 79.419 324.612 76.6136 328.353 72.3141C332.094 68.0147 334.157 62.5099 334.165 56.811Z" fill="#292A2E"/>
        <path d="M271.694 56.811C271.653 50.5691 269.145 44.5967 264.717 40.1973C260.289 35.7979 254.301 33.3287 248.059 33.3287C241.817 33.3287 235.828 35.7979 231.4 40.1973C226.972 44.5967 224.464 50.5691 224.423 56.811H226.423C226.422 52.6589 227.616 48.5942 229.862 45.102C232.108 41.6099 235.312 38.8379 239.091 37.1167C242.869 35.3956 247.063 34.7981 251.172 35.3955C255.281 35.9929 259.131 37.76 262.263 40.4859C265.395 43.2118 267.677 46.7814 268.836 50.7686C269.994 54.7557 269.981 58.9921 268.798 62.9721C267.615 66.952 265.311 70.5075 262.162 73.214C259.014 75.9206 255.153 77.6639 251.04 78.236C250.694 77.522 250.103 76.9555 249.375 76.6391C248.647 76.3226 247.83 76.2771 247.072 76.5108C246.314 76.7445 245.664 77.2419 245.24 77.913C244.817 78.5842 244.647 79.3848 244.763 80.1699C244.878 80.9551 245.271 81.6731 245.87 82.1939C246.469 82.7147 247.234 83.004 248.028 83.0094C248.821 83.0149 249.591 82.7361 250.196 82.2236C250.802 81.711 251.205 80.9985 251.331 80.215C256.974 79.4192 262.141 76.6139 265.882 72.3144C269.623 68.0149 271.686 62.51 271.694 56.811Z" fill="#292A2E"/>
    </g>
    <g opacity="0.72">
        <path d="M637.416 179.48H168.342C168.077 179.48 167.822 179.375 167.635 179.187C167.447 179 167.342 178.745 167.342 178.48C167.342 178.215 167.447 177.96 167.635 177.773C167.822 177.585 168.077 177.48 168.342 177.48H637.416C637.681 177.48 637.936 177.585 638.123 177.773C638.311 177.96 638.416 178.215 638.416 178.48C638.416 178.745 638.311 179 638.123 179.187C637.936 179.375 637.681 179.48 637.416 179.48Z" fill="#292A2E"/>
    </g>
    <g opacity="0.72">
        <path d="M637.416 236.175H168.342C168.077 236.175 167.822 236.07 167.635 235.882C167.447 235.695 167.342 235.44 167.342 235.175C167.342 234.91 167.447 234.655 167.635 234.468C167.822 234.28 168.077 234.175 168.342 234.175H637.416C637.681 234.175 637.936 234.28 638.123 234.468C638.311 234.655 638.416 234.91 638.416 235.175C638.416 235.44 638.311 235.695 638.123 235.882C637.936 236.07 637.681 236.175 637.416 236.175Z" fill="#292A2E"/>
    </g>
    <g opacity="0.72">
        <path d="M372.744 292.871H168.344C168.079 292.871 167.824 292.766 167.637 292.578C167.449 292.391 167.344 292.136 167.344 291.871C167.344 291.606 167.449 291.351 167.637 291.164C167.824 290.976 168.079 290.871 168.344 290.871H372.744C373.009 290.871 373.264 290.976 373.451 291.164C373.639 291.351 373.744 291.606 373.744 291.871C373.744 292.136 373.639 292.391 373.451 292.578C373.264 292.766 373.009 292.871 372.744 292.871Z" fill="#292A2E"/>
    </g>
    <path d="M860.851 475.024C865.274 475.023 869.631 473.954 873.552 471.907C877.473 469.861 880.841 466.897 883.37 463.269C885.899 459.64 887.514 455.454 888.077 451.068C888.641 446.681 888.136 442.223 886.606 438.073C885.052 433.86 848.632 337.417 841.699 319.548L790.36 340.348C794.26 350.396 808.383 388.48 819.73 419.159L800.879 417.11L794.945 471.7L857.88 474.867C858.867 474.973 859.859 475.025 860.851 475.024Z" fill="#367CFF"/>
    <path d="M409.376 339.501L428.352 271.663L875.455 391.096L856.479 458.934L409.376 339.501Z" fill="#367CFF"/>
    <path opacity="0.5" d="M409.376 339.501L428.352 271.663L875.455 391.096L856.479 458.934L409.376 339.501Z" fill="white"/>
    <path d="M905.557 472.665L924.532 404.826L875.459 391.1L856.484 458.938L905.557 472.665Z" fill="#262626"/>
    <path d="M409.376 339.5C409.376 339.5 396.5 325.069 385 312.1C375.882 301.813 367.634 292.445 367.381 291.932C367.128 291.419 379.516 287.224 393.2 282.798C409.825 277.416 428.355 271.665 428.355 271.665L409.376 339.5Z" fill="#367CFF"/>
    <path opacity="0.9" d="M409.376 339.5C409.376 339.5 396.5 325.069 385 312.1C375.882 301.813 367.634 292.445 367.381 291.932C367.128 291.419 379.516 287.224 393.2 282.798C409.825 277.416 428.355 271.665 428.355 271.665L409.376 339.5Z" fill="white"/>
    <path d="M385 312.1C375.882 301.813 367.634 292.445 367.381 291.932C367.128 291.419 379.516 287.224 393.2 282.798L385 312.1Z" fill="#262626"/>
    <path d="M415.414 318.414L862.636 436.582L861.781 439.68L414.558 321.513L415.414 318.414Z" fill="white"/>
    <path d="M422.827 291.871L870.05 410.038L869.194 413.136L421.972 294.969L422.827 291.871Z" fill="white"/>
    <path d="M802.573 898.2C802.573 898.2 798.058 921.6 776.145 922.909C754.232 924.218 758.984 941.67 758.984 941.67H842.723V899.835L802.573 898.2Z" fill="#367CFF"/>
    <path d="M828.4 471.273C828.4 471.273 828.137 464.237 828.193 480.197C828.4 539.726 829.433 607.722 831.957 647.511C836.014 711.475 846.416 913.14 846.416 913.14L791.391 912.678L738.06 468.854L828.4 471.273Z" fill="#262626"/>
    <path d="M766.262 541.471C766.262 541.471 763.982 584.671 763.562 594.813C762.584 618.268 762.244 642.552 762.244 670.085L753.571 597.905C753.571 597.905 759.915 575.285 766.262 541.471Z" fill="#0A0A0A"/>
    <path d="M704.612 898.2C704.612 898.2 700.097 921.6 678.184 922.909C656.271 924.218 661.022 941.67 661.022 941.67H744.762V899.835L704.612 898.2Z" fill="#367CFF"/>
    <path d="M677.968 475.9C677.968 475.9 673.095 679.356 673.809 689.3L694.272 911.6L748.389 912.6L743.115 681.257C743.115 681.257 746.835 617.441 762.254 558.184C770.143 527.771 774.891 496.628 776.422 465.246L677.968 475.9Z" fill="#262626"/>
    <path d="M829 471.267L829.18 471.277C829.18 471.277 829.05 467.807 829 471.267Z" fill="#333333"/>
    <path d="M670.222 362.964C671.357 376.296 676.878 459.474 677.968 475.895H828.341C829.19 461.084 829.334 396.912 832.555 367.949C835.63 340.311 845.334 325.881 840.912 317.711C833.686 304.357 813.94 296.64 800.476 294.817C792.254 293.704 779.889 292.906 779.889 292.906C779.889 292.906 778.842 314.087 753.876 315.266C719.89 316.866 722.16 292.906 721.991 292.906C716.491 292.906 686.037 296.024 679.339 301.952C661.328 317.893 667.814 334.711 670.222 362.964Z" fill="#367CFF"/>
    <path d="M704.077 291.08C704.245 291.058 708.857 308.416 744.854 305.715C769.775 303.848 775.854 286.885 776.422 286.885C773.736 286.314 769.372 285.721 768.179 285.085C764.255 282.977 761.396 280.41 759.958 274.902C758.832 270.594 758.258 254.011 758.258 245.691L719.911 254.308C720.445 263.693 724.186 285.451 711.075 289.302C708.894 289.938 706.544 290.524 704.077 291.08Z" fill="#E98862"/>
    <path d="M721.239 272.759C736.356 273.952 755.776 267.569 759.464 247.4L762.793 229.2C766.481 209.031 758.878 190.743 739.893 187.27C720.903 183.797 703.718 197.551 700.029 217.72L698.556 225.777C697.136 233.517 694.266 270.631 721.239 272.759Z" fill="#E98862"/>
    <path d="M707.222 254.241C709.935 240.607 711.179 231.51 711.035 221.913C707.213 215.213 708.218 207.513 709.087 204.189C706.455 205.861 703.36 206.655 700.248 206.456C700.248 206.456 706.569 181.088 728.048 174.262C731.999 172.724 742.085 170.782 755.479 172.619C766.87 174.181 794.95 182.699 798.962 214.312V214.33C799.094 215.378 801.79 244.505 807.162 258.48C814.388 277.267 824.533 283.104 824.276 304.78C823.945 332.661 772.688 336.372 741.776 334.287C710.864 332.202 693.601 322.035 693.376 301.942C693.134 279.429 701.792 281.52 707.222 254.241Z" fill="#0A0A0A"/>
    <path d="M831.554 367.917L827.859 475.882L828.859 475.916L832.554 367.952L831.554 367.917Z" fill="#0C0C0C"/>
    <path d="M529.134 370.05L514.275 348.791C513.948 348.324 513.528 347.93 513.041 347.634C512.554 347.338 512.01 347.147 511.445 347.073C510.88 346.999 510.306 347.043 509.759 347.203C509.212 347.363 508.704 347.635 508.268 348.002C507.484 348.704 506.988 349.673 506.878 350.72C506.767 351.766 507.048 352.817 507.668 353.668L510.854 358.226L494.254 348.49C492.427 347.376 489.473 347.176 488.354 349.308C487.871 350.1 487.671 351.032 487.786 351.953C487.901 352.874 488.325 353.728 488.989 354.376C488.974 354.39 488.96 354.407 488.949 354.424C488.943 354.439 488.937 354.454 488.933 354.469L486.116 352.75C485.594 352.432 485.008 352.235 484.4 352.172C483.792 352.109 483.178 352.183 482.602 352.387C482.026 352.592 481.503 352.923 481.071 353.355C480.639 353.788 480.309 354.311 480.105 354.887C479.802 355.801 479.821 356.791 480.161 357.692C480.501 358.593 481.14 359.35 481.971 359.836L483.171 360.567C483.166 360.611 483.169 360.656 483.179 360.7C482.254 360.394 481.25 360.427 480.347 360.793C479.444 361.16 478.702 361.836 478.252 362.7C477.788 363.659 477.702 364.757 478.011 365.776C478.32 366.796 479.002 367.661 479.921 368.2L482.898 370.017C482.85 370.019 482.803 370.03 482.759 370.05C482.715 370.07 482.676 370.099 482.644 370.135C482.612 370.171 482.588 370.213 482.572 370.259C482.557 370.305 482.551 370.353 482.555 370.401C481.657 370.358 480.769 370.611 480.028 371.121C479.288 371.631 478.735 372.37 478.455 373.225C478.179 374.13 478.216 375.101 478.561 375.982C478.906 376.863 479.538 377.601 480.355 378.078L505.476 393.406C508.991 395.55 513.065 396.596 517.178 396.409C521.291 396.223 525.254 394.812 528.56 392.359C531.41 390.243 533.323 387.099 533.893 383.595C534.462 380.092 533.643 376.504 531.61 373.594L529.134 370.05Z" fill="#E98862"/>
    <g opacity="0.2">
        <path d="M505.377 364.1C505.325 364.184 505.242 364.244 505.146 364.268C505.05 364.292 504.948 364.276 504.863 364.226L489.089 354.947C489.006 354.894 488.947 354.811 488.924 354.716C488.901 354.62 488.916 354.52 488.966 354.435C489.016 354.35 489.096 354.288 489.191 354.262C489.286 354.236 489.387 354.247 489.473 354.294L505.248 363.574C505.291 363.599 505.328 363.633 505.358 363.672C505.388 363.712 505.41 363.757 505.422 363.805C505.435 363.853 505.438 363.903 505.431 363.953C505.424 364.002 505.407 364.049 505.382 364.092L505.377 364.1Z" fill="#0C0C0C"/>
    </g>
    <g opacity="0.2">
        <path d="M501.477 371.165C501.425 371.249 501.342 371.309 501.246 371.333C501.15 371.357 501.048 371.341 500.963 371.291L483.363 360.936C483.32 360.911 483.283 360.877 483.253 360.838C483.223 360.798 483.201 360.752 483.189 360.704C483.176 360.656 483.173 360.606 483.18 360.557C483.187 360.507 483.204 360.46 483.229 360.417C483.282 360.333 483.365 360.272 483.462 360.248C483.558 360.223 483.66 360.235 483.747 360.283L501.347 370.638C501.433 370.689 501.496 370.773 501.521 370.87C501.547 370.967 501.532 371.07 501.482 371.157L501.477 371.165Z" fill="#0C0C0C"/>
    </g>
    <g opacity="0.2">
        <path d="M497.3 378.846C497.248 378.93 497.165 378.99 497.069 379.014C496.973 379.038 496.872 379.023 496.787 378.973L482.744 370.713C482.661 370.66 482.602 370.577 482.579 370.482C482.556 370.386 482.571 370.286 482.621 370.201C482.67 370.116 482.751 370.054 482.846 370.028C482.94 370.002 483.042 370.013 483.128 370.06L497.171 378.32C497.214 378.345 497.251 378.379 497.281 378.419C497.311 378.458 497.333 378.504 497.345 378.552C497.358 378.6 497.361 378.65 497.354 378.699C497.347 378.749 497.33 378.796 497.305 378.839L497.3 378.846Z" fill="#0C0C0C"/>
    </g>
    <path d="M673.747 308.371L611.4 401.817L532.679 356.174L504.249 402.739L605.087 467.5C611.555 471.644 619.39 473.086 626.91 471.515C634.429 469.945 641.032 465.487 645.3 459.1L645.674 458.54L723.656 341.671L673.747 308.371Z" fill="#367CFF"/>
    <path d="M673.937 417.348C673.847 417.348 673.758 417.323 673.68 417.277C673.603 417.23 673.539 417.163 673.496 417.083C673.454 417.003 673.434 416.914 673.438 416.823C673.443 416.733 673.472 416.645 673.522 416.57L689.964 392.092C690.04 391.986 690.154 391.914 690.282 391.891C690.409 391.867 690.541 391.895 690.649 391.967C690.757 392.04 690.833 392.152 690.86 392.279C690.887 392.406 690.863 392.539 690.794 392.649L674.352 417.127C674.306 417.195 674.244 417.251 674.172 417.289C674.1 417.328 674.019 417.348 673.937 417.348Z" fill="#0C0C0C"/>
    <path d="M951.5 942.446H10.0259C9.82092 942.446 9.6243 942.365 9.47934 942.22C9.33437 942.075 9.25293 941.878 9.25293 941.673C9.25293 941.468 9.33437 941.271 9.47934 941.126C9.6243 940.981 9.82092 940.9 10.0259 940.9H951.5C951.705 940.9 951.902 940.981 952.047 941.126C952.191 941.271 952.273 941.468 952.273 941.673C952.273 941.878 952.191 942.075 952.047 942.22C951.902 942.365 951.705 942.446 951.5 942.446Z" fill="#3F3F3F"/>
</svg>
