<svg width="1060" height="668" viewBox="0 0 1060 668" fill="none" xmlns="http://www.w3.org/2000/svg">
    <g clip-path="url(#clip0_6_201)">
        <path d="M909.362 434.684L907.374 434.902L931.924 659.247L933.912 659.029L909.362 434.684Z" fill="#292A2E"/>
        <path d="M972.948 532.623L960.87 652.104L962.86 652.305L974.938 532.824L972.948 532.623Z" fill="#292A2E"/>
        <path d="M993.714 637.662H904.098V666.745H993.714V637.662Z" fill="#292A2E"/>
        <path opacity="0.2" d="M993.714 637.662H904.098V666.745H993.714V637.662Z" fill="white"/>
        <path d="M1047.74 584.111C1064.71 561.548 1056.62 526.813 1029.66 506.528C1002.7 486.243 967.083 488.09 950.106 510.653C933.13 533.216 941.223 567.951 968.183 588.236C995.143 608.52 1030.76 606.674 1047.74 584.111Z" fill="#0CBC8B"/>
        <path opacity="0.2" d="M1047.74 584.111C1064.71 561.548 1056.62 526.813 1029.66 506.528C1002.7 486.243 967.083 488.09 950.106 510.653C933.13 533.216 941.223 567.951 968.183 588.236C995.143 608.52 1030.76 606.674 1047.74 584.111Z" fill="white"/>
        <path opacity="0.5" d="M1047.74 584.115C1046.6 585.637 1045.35 587.078 1044.01 588.429C1025.32 600.368 997.742 598.488 975.859 582.021C948.902 561.74 940.811 527.005 957.789 504.443C958.931 502.925 960.171 501.484 961.503 500.129C980.203 488.181 1007.78 490.069 1029.67 506.529C1056.62 526.817 1064.71 561.552 1047.74 584.115Z" fill="white"/>
        <path d="M922.677 498.511C949.385 477.895 956.644 442.538 938.891 419.539C921.137 396.54 885.095 394.608 858.387 415.224C831.679 435.84 824.42 471.197 842.173 494.196C859.927 517.195 895.969 519.127 922.677 498.511Z" fill="#0CBC8B"/>
        <path opacity="0.2" d="M914.212 492.593C893.529 508.569 867.243 511.003 848.189 500.603C845.984 498.661 843.97 496.512 842.174 494.186C824.418 471.194 831.674 435.833 858.382 415.221C879.066 399.254 905.352 396.811 924.397 407.202C926.607 409.145 928.624 411.297 930.42 413.628C948.177 436.62 940.919 471.981 914.212 492.593Z" fill="white"/>
        <path d="M104.955 259.851C158.679 259.851 202.23 216.3 202.23 162.576C202.23 108.853 158.679 65.301 104.955 65.301C51.2315 65.301 7.68 108.853 7.68 162.576C7.68 216.3 51.2315 259.851 104.955 259.851Z" fill="#F4F4F4"/>
        <g opacity="0.05">
            <path d="M104.955 239.691C147.544 239.691 182.07 205.165 182.07 162.576C182.07 119.987 147.544 85.461 104.955 85.461C62.3656 85.461 27.84 119.987 27.84 162.576C27.84 205.165 62.3656 239.691 104.955 239.691Z" fill="#292A2E"/>
        </g>
        <path d="M79.714 190.121L86.908 178.966C92.608 183.335 97.597 185.566 102.9 185.566C109.258 185.566 112.055 182.929 112.055 177.824C112.055 166.284 82.446 166.492 82.446 146.251C82.446 133.239 91.459 124.951 105.672 124.951C115.267 124.951 121.786 128.911 127.025 134.467L118.775 143.918C114.698 140.21 111.241 138.257 106.557 138.257C101.157 138.257 98.234 140.433 98.234 145.472C98.234 156.172 127.842 155.235 127.842 176.672C127.842 189.553 119.319 198.872 102.9 198.872C95.816 198.869 86.049 195.861 79.714 190.121ZM99.443 113.956H110.385V130.11H99.443V113.956ZM99.443 192.137H110.385V209.861H99.443V192.137Z" fill="white"/>
        <path d="M962.528 194.55C1016.25 194.55 1059.8 150.999 1059.8 97.275C1059.8 43.5515 1016.25 0 962.528 0C908.805 0 865.253 43.5515 865.253 97.275C865.253 150.999 908.805 194.55 962.528 194.55Z" fill="#F4F4F4"/>
        <g opacity="0.05">
            <path d="M962.528 174.39C1005.12 174.39 1039.64 139.864 1039.64 97.275C1039.64 54.6856 1005.12 20.16 962.528 20.16C919.939 20.16 885.413 54.6856 885.413 97.275C885.413 139.864 919.939 174.39 962.528 174.39Z" fill="#292A2E"/>
        </g>
        <path d="M937.287 124.819L944.481 113.665C950.181 118.033 955.169 120.265 960.473 120.265C966.831 120.265 969.627 117.627 969.627 112.522C969.627 100.982 940.019 101.19 940.019 80.949C940.019 67.938 949.032 59.649 963.245 59.649C972.839 59.649 979.358 63.608 984.598 69.164L976.347 78.615C972.27 74.907 968.813 72.955 964.13 72.955C958.73 72.955 955.806 75.131 955.806 80.17C955.806 90.87 985.415 89.932 985.415 111.37C985.415 124.25 976.891 133.57 960.473 133.57C953.388 133.568 943.621 130.56 937.287 124.819ZM957.015 48.655H967.957V64.808H957.015V48.655ZM957.015 126.835H967.957V144.56H957.015V126.835Z" fill="white"/>
        <path d="M879.502 50.064H204.814C188.245 50.064 174.814 63.4955 174.814 80.064V574.039C174.814 590.608 188.245 604.039 204.814 604.039H879.502C896.071 604.039 909.502 590.608 909.502 574.039V80.064C909.502 63.4955 896.071 50.064 879.502 50.064Z" fill="white"/>
        <path d="M879.5 605.038H204.814C196.595 605.028 188.716 601.759 182.904 595.948C177.093 590.136 173.824 582.257 173.814 574.038V80.064C173.823 71.8451 177.092 63.9655 182.904 58.1539C188.716 52.3423 196.595 49.0733 204.814 49.064H879.5C887.719 49.073 895.599 52.342 901.41 58.1536C907.222 63.9653 910.491 71.8451 910.5 80.064V574.038C910.491 582.257 907.222 590.136 901.41 595.948C895.598 601.76 887.719 605.029 879.5 605.038ZM204.814 51.064C197.125 51.0725 189.754 54.1305 184.317 59.5673C178.881 65.004 175.822 72.3753 175.814 80.064V574.038C175.822 581.727 178.881 589.098 184.317 594.535C189.754 599.971 197.125 603.03 204.814 603.038H879.5C887.189 603.03 894.56 599.971 899.997 594.535C905.433 589.098 908.492 581.727 908.5 574.038V80.064C908.492 72.3753 905.433 65.004 899.997 59.5673C894.56 54.1305 887.189 51.0725 879.5 51.064H204.814Z" fill="#292A2E"/>
        <path d="M305.955 320.821C305.561 320.821 305.171 320.744 304.807 320.593C304.443 320.442 304.112 320.221 303.834 319.942L289.834 305.942C289.288 305.376 288.985 304.618 288.992 303.832C288.999 303.045 289.314 302.293 289.871 301.737C290.427 301.18 291.179 300.865 291.966 300.858C292.752 300.851 293.51 301.154 294.076 301.7L308.076 315.7C308.495 316.12 308.781 316.654 308.897 317.236C309.012 317.818 308.953 318.421 308.726 318.969C308.499 319.517 308.115 319.986 307.621 320.315C307.128 320.645 306.548 320.821 305.955 320.821Z" fill="#0CBC8B"/>
        <path d="M291.955 320.821C291.362 320.821 290.782 320.645 290.289 320.315C289.795 319.986 289.411 319.517 289.184 318.969C288.957 318.421 288.898 317.818 289.013 317.236C289.129 316.654 289.415 316.12 289.834 315.7L303.834 301.7C304.4 301.154 305.158 300.851 305.944 300.858C306.731 300.865 307.483 301.18 308.039 301.737C308.596 302.293 308.911 303.045 308.918 303.832C308.925 304.618 308.622 305.376 308.076 305.942L294.076 319.942C293.798 320.221 293.467 320.442 293.103 320.593C292.739 320.744 292.349 320.822 291.955 320.821Z" fill="#0CBC8B"/>
        <path d="M706.804 454.631L702.807 463.798L727.401 474.52L731.397 465.353L706.804 454.631Z" fill="#0CBC8B"/>
        <path d="M714.567 208.872L691.436 222.464L696.502 231.085L719.633 217.493L714.567 208.872Z" fill="#0CBC8B"/>
        <path d="M329.117 232.148L326.019 241.656L351.529 249.968L354.627 240.46L329.117 232.148Z" fill="#0CBC8B"/>
        <path d="M358.981 391.62L337.008 406.993L342.738 415.183L364.711 399.81L358.981 391.62Z" fill="#0CBC8B"/>
        <path d="M761.996 356.381L761.078 366.339L787.21 368.748L788.128 358.79L761.996 356.381Z" fill="#0CBC8B"/>
        <path d="M788.609 284.752C788.215 284.753 787.825 284.675 787.461 284.524C787.097 284.373 786.766 284.152 786.488 283.873L772.488 269.873C772.201 269.596 771.973 269.265 771.816 268.899C771.658 268.533 771.576 268.14 771.572 267.741C771.569 267.343 771.645 266.948 771.796 266.579C771.946 266.21 772.169 265.875 772.451 265.594C772.732 265.312 773.067 265.089 773.436 264.939C773.805 264.788 774.2 264.712 774.598 264.715C774.997 264.719 775.39 264.801 775.756 264.959C776.122 265.116 776.453 265.344 776.73 265.631L790.73 279.631C791.149 280.051 791.435 280.585 791.551 281.167C791.666 281.749 791.607 282.352 791.38 282.9C791.153 283.448 790.769 283.917 790.275 284.246C789.782 284.576 789.202 284.752 788.609 284.752Z" fill="#0CBC8B"/>
        <path d="M774.609 284.752C774.016 284.752 773.436 284.576 772.943 284.246C772.449 283.917 772.065 283.448 771.838 282.9C771.611 282.352 771.552 281.749 771.667 281.167C771.783 280.585 772.069 280.051 772.488 279.631L786.488 265.631C786.765 265.344 787.096 265.116 787.462 264.959C787.828 264.801 788.221 264.719 788.62 264.715C789.018 264.712 789.413 264.788 789.782 264.939C790.151 265.089 790.486 265.312 790.767 265.594C791.049 265.875 791.272 266.21 791.422 266.579C791.573 266.948 791.649 267.343 791.646 267.741C791.642 268.14 791.56 268.533 791.402 268.899C791.245 269.265 791.017 269.596 790.73 269.873L776.73 283.873C776.452 284.152 776.121 284.373 775.757 284.524C775.393 284.675 775.003 284.752 774.609 284.752Z" fill="#0CBC8B"/>
        <path opacity="0.4" d="M542.158 501.089C630.263 501.089 701.687 429.665 701.687 341.56C701.687 253.455 630.263 182.031 542.158 182.031C454.053 182.031 382.629 253.455 382.629 341.56C382.629 429.665 454.053 501.089 542.158 501.089Z" fill="#0CBC8B"/>
        <path d="M542.158 453.127C603.775 453.127 653.725 403.177 653.725 341.56C653.725 279.943 603.775 229.993 542.158 229.993C480.541 229.993 430.591 279.943 430.591 341.56C430.591 403.177 480.541 453.127 542.158 453.127Z" fill="#0CBC8B"/>
        <path d="M519.345 389.423C518.469 389.424 517.602 389.247 516.796 388.903C515.991 388.559 515.263 388.056 514.657 387.423L479.146 350.466C478.544 349.853 478.069 349.126 477.749 348.328C477.429 347.53 477.271 346.677 477.283 345.817C477.296 344.958 477.478 344.109 477.821 343.32C478.163 342.532 478.659 341.819 479.279 341.224C479.899 340.628 480.63 340.161 481.432 339.85C482.233 339.539 483.089 339.391 483.948 339.413C484.807 339.434 485.654 339.627 486.439 339.978C487.223 340.329 487.93 340.833 488.519 341.459L519.679 373.887L601.143 300.808C601.777 300.228 602.519 299.78 603.327 299.489C604.135 299.198 604.993 299.07 605.85 299.113C606.708 299.155 607.549 299.367 608.324 299.736C609.1 300.106 609.794 300.625 610.368 301.264C610.941 301.903 611.382 302.65 611.666 303.461C611.949 304.271 612.069 305.13 612.018 305.987C611.968 306.845 611.748 307.683 611.371 308.455C610.994 309.227 610.469 309.917 609.824 310.484L523.685 387.758C522.494 388.831 520.948 389.424 519.345 389.423Z" fill="white"/>
        <path d="M909.5 80.06V110.247H174.817V80.06C174.817 72.1035 177.978 64.4729 183.604 58.8468C189.23 53.2207 196.861 50.06 204.817 50.06H879.5C887.456 50.06 895.087 53.2207 900.713 58.8468C906.339 64.4729 909.5 72.1035 909.5 80.06Z" fill="#292A2E"/>
        <path d="M37.495 607.657C31.4538 607.656 25.5023 606.196 20.1469 603.4C14.7915 600.604 10.1908 596.556 6.73641 591.6C3.282 586.644 1.0761 580.926 0.306463 574.934C-0.463175 568.942 0.226228 562.853 2.316 557.185C4.437 551.43 58.841 410.992 68.316 386.585L133.787 424.685C128.462 438.41 109.168 490.43 93.668 532.336L119.419 529.536L127.524 598.097L41.558 607.443C40.2085 607.587 38.8522 607.659 37.495 607.657Z" fill="#367CFF"/>
        <path d="M82.435 609.827L71 666.745H293.099L280.306 608.745L82.435 609.827Z" fill="#262626"/>
        <path d="M251.64 357.38C251.41 357.35 245.11 381.06 195.94 377.37C161.9 374.82 153.6 351.65 152.82 351.65C156.49 350.87 162.45 350.06 164.08 349.19C169.44 346.31 173.344 342.804 175.31 335.28C176.847 329.396 177.63 306.745 177.63 295.38L230.01 307.15C229.28 319.97 224.17 349.69 242.08 354.95C245.06 355.82 248.27 356.62 251.64 357.38Z" fill="#E98862"/>
        <path d="M228.2 332.354C207.551 333.984 181.025 325.265 175.986 297.715L171.44 272.857C166.401 245.307 176.787 220.327 202.727 215.583C228.666 210.839 252.14 229.626 257.178 257.176L259.191 268.182C261.121 278.752 265.04 329.448 228.2 332.354Z" fill="#E98862"/>
        <path d="M130.456 355.464C111.9 356.841 92.979 358.85 79.325 371.491C62.881 386.715 59.901 405.434 70.392 456.948C79.418 501.273 75.838 520.642 81.876 602.434C82.054 604.844 82.435 609.827 82.435 609.827L280.935 609.498C280.935 609.498 299.535 500.981 309.804 450.93C317.613 412.879 338.125 366.686 251.64 357.377C251.412 357.352 182.049 351.636 130.456 355.464Z" fill="#367CFF"/>
        <path d="M82.435 610.328C82.3056 610.328 82.1812 610.278 82.088 610.188C81.9948 610.099 81.9399 609.976 81.935 609.847L75.714 448.372C75.7091 448.24 75.7571 448.111 75.8473 448.013C75.9375 447.916 76.0625 447.859 76.195 447.854C76.2612 447.849 76.3279 447.857 76.3907 447.879C76.4535 447.9 76.5111 447.935 76.5599 447.98C76.6087 448.025 76.6476 448.08 76.6741 448.141C76.7006 448.202 76.7142 448.268 76.714 448.334L82.935 609.809C82.9399 609.941 82.8919 610.07 82.8017 610.168C82.7115 610.265 82.5865 610.322 82.454 610.327L82.435 610.328Z" fill="#0C0C0C"/>
        <path d="M400.948 413.118L414.894 381.835C415.201 381.148 415.647 380.532 416.204 380.026C416.762 379.521 417.419 379.137 418.133 378.899C418.847 378.662 419.603 378.575 420.352 378.646C421.101 378.717 421.828 378.942 422.485 379.309C423.678 380.024 424.564 381.156 424.969 382.486C425.374 383.817 425.271 385.25 424.679 386.509L421.689 393.216L440.775 376.438C442.864 374.538 446.645 373.538 448.625 376.022C449.449 376.928 449.942 378.087 450.023 379.31C450.104 380.532 449.768 381.746 449.07 382.753C449.093 382.768 449.114 382.785 449.133 382.805C449.145 382.822 449.156 382.84 449.165 382.859L452.387 379.926C452.984 379.383 453.695 378.98 454.467 378.747C455.24 378.513 456.055 378.455 456.852 378.576C457.65 378.697 458.411 378.995 459.079 379.448C459.748 379.9 460.306 380.496 460.715 381.192C461.337 382.301 461.559 383.59 461.344 384.843C461.129 386.096 460.491 387.237 459.535 388.076L458.164 389.324C458.181 389.38 458.189 389.439 458.186 389.498C459.308 388.87 460.617 388.661 461.879 388.909C463.141 389.158 464.273 389.847 465.074 390.853C465.917 391.98 466.305 393.384 466.159 394.784C466.013 396.184 465.345 397.478 464.287 398.407L460.887 401.507C460.966 401.497 461.046 401.506 461.121 401.533C461.196 401.561 461.263 401.605 461.317 401.664C461.378 401.737 461.416 401.825 461.428 401.919C462.583 401.637 463.798 401.742 464.887 402.218C465.976 402.694 466.878 403.514 467.456 404.553C468.041 405.657 468.235 406.926 468.009 408.154C467.782 409.383 467.147 410.498 466.207 411.321L437.472 437.482C433.452 441.142 428.431 443.518 423.051 444.305C417.672 445.093 412.18 444.256 407.28 441.902C403.054 439.873 399.787 436.275 398.171 431.875C396.556 427.474 396.72 422.617 398.629 418.336L400.948 413.118Z" fill="#E98862"/>
        <g opacity="0.2">
            <path d="M430.26 399.45C430.349 399.547 430.472 399.604 430.603 399.611C430.734 399.618 430.862 399.573 430.96 399.486L449.091 383.507C449.14 383.464 449.18 383.411 449.209 383.352C449.238 383.293 449.255 383.229 449.259 383.163C449.263 383.098 449.254 383.032 449.233 382.97C449.212 382.908 449.178 382.85 449.135 382.801C449.092 382.752 449.039 382.712 448.98 382.683C448.921 382.654 448.857 382.637 448.791 382.633C448.726 382.629 448.66 382.638 448.598 382.659C448.536 382.68 448.478 382.714 448.429 382.757L430.3 398.735C430.251 398.778 430.211 398.831 430.182 398.89C430.153 398.949 430.136 399.013 430.132 399.079C430.128 399.144 430.136 399.21 430.158 399.272C430.179 399.334 430.213 399.392 430.256 399.441L430.26 399.45Z" fill="#0C0C0C"/>
        </g>
        <g opacity="0.2">
            <path d="M437.087 407.641C437.176 407.737 437.299 407.795 437.43 407.802C437.561 407.808 437.689 407.763 437.787 407.676L458.021 389.844C458.07 389.801 458.11 389.748 458.139 389.689C458.168 389.63 458.185 389.566 458.189 389.5C458.193 389.435 458.184 389.369 458.163 389.307C458.142 389.245 458.108 389.187 458.065 389.138C457.975 389.042 457.852 388.985 457.721 388.976C457.59 388.968 457.46 389.01 457.359 389.094L437.125 406.926C437.076 406.969 437.035 407.022 437.007 407.081C436.978 407.14 436.961 407.204 436.957 407.27C436.953 407.335 436.961 407.401 436.983 407.463C437.004 407.525 437.037 407.583 437.081 407.632L437.087 407.641Z" fill="#0C0C0C"/>
        </g>
        <g opacity="0.2">
            <path d="M444.43 416.554C444.519 416.651 444.642 416.708 444.773 416.715C444.904 416.722 445.032 416.677 445.13 416.59L461.27 402.366C461.37 402.278 461.43 402.154 461.439 402.022C461.447 401.889 461.402 401.759 461.315 401.659C461.227 401.56 461.103 401.499 460.97 401.491C460.838 401.483 460.708 401.527 460.608 401.615L444.468 415.84C444.419 415.883 444.379 415.936 444.35 415.995C444.321 416.054 444.304 416.118 444.3 416.184C444.296 416.249 444.304 416.315 444.326 416.377C444.347 416.439 444.381 416.497 444.424 416.546L444.43 416.554Z" fill="#0C0C0C"/>
        </g>
        <path d="M247.344 307.06C243.638 288.436 241.938 276.011 242.135 262.902C247.356 253.744 245.983 243.234 244.796 238.692C249.913 241.484 252.053 241.792 256.869 241.792C256.869 241.792 248.235 207.141 218.889 197.817C213.489 195.717 199.715 193.064 181.421 195.573C165.861 197.707 127.505 209.341 122.021 252.523V252.548C121.839 253.98 118.157 293.765 110.815 312.854C100.944 338.516 87.088 346.489 87.439 376.096C87.891 414.18 157.905 419.25 200.139 416.396C242.373 413.542 265.939 399.662 266.247 372.216C266.587 341.465 254.76 344.321 247.344 307.06Z" fill="#0A0A0A"/>
        <path d="M247.356 291.449C239.473 292.89 231.54 285.625 230.099 277.743C228.658 269.861 234.252 264.343 242.135 262.902L247.356 291.449Z" fill="#E98862"/>
        <path d="M332.143 601.98C324.214 601.979 316.489 599.465 310.077 594.801C303.665 590.136 298.895 583.56 296.453 576.016L244.353 414.882L315.715 391.808L343.115 476.562L390.468 401.257L453.959 441.18L363.88 584.44C360.504 589.808 355.822 594.233 350.272 597.3C344.722 600.368 338.484 601.978 332.143 601.98Z" fill="#367CFF"/>
        <path d="M290.1 557.491C290.069 557.491 290.038 557.489 290.008 557.483C289.878 557.459 289.762 557.384 289.687 557.274C289.612 557.165 289.584 557.03 289.608 556.9L307.319 460.759C307.343 460.629 307.418 460.513 307.527 460.438C307.636 460.362 307.771 460.333 307.902 460.357C308.032 460.382 308.148 460.456 308.223 460.566C308.298 460.675 308.327 460.81 308.303 460.94L290.592 557.082C290.571 557.197 290.51 557.301 290.42 557.375C290.33 557.45 290.217 557.491 290.1 557.491Z" fill="#0C0C0C"/>
        <path d="M349.489 499.256C349.378 499.256 349.27 499.22 349.183 499.152C349.095 499.084 349.032 498.989 349.004 498.882L343.104 476.156C343.088 476.092 343.084 476.026 343.093 475.961C343.102 475.896 343.124 475.834 343.157 475.777C343.19 475.72 343.234 475.671 343.287 475.631C343.339 475.592 343.399 475.563 343.462 475.547C343.526 475.53 343.592 475.526 343.657 475.535C343.722 475.544 343.785 475.566 343.841 475.6C343.898 475.633 343.948 475.677 343.987 475.729C344.027 475.782 344.056 475.841 344.072 475.905L349.972 498.631C350.005 498.759 349.986 498.896 349.919 499.01C349.851 499.124 349.741 499.207 349.613 499.24C349.573 499.251 349.531 499.256 349.489 499.256Z" fill="#0C0C0C"/>
        <path d="M22.765 667.745H1022.41C1022.67 667.745 1022.93 667.64 1023.11 667.452C1023.3 667.265 1023.41 667.01 1023.41 666.745C1023.41 666.48 1023.3 666.225 1023.11 666.038C1022.93 665.85 1022.67 665.745 1022.41 665.745H22.765C22.4998 665.745 22.2454 665.85 22.0579 666.038C21.8704 666.225 21.765 666.48 21.765 666.745C21.765 667.01 21.8704 667.265 22.0579 667.452C22.2454 667.64 22.4998 667.745 22.765 667.745Z" fill="#292A2E"/>
        <path d="M787.979 332.036H979.323C989.418 332.036 997.601 323.853 997.601 313.758V188.358C997.601 178.263 989.418 170.08 979.323 170.08L787.979 170.08C777.884 170.08 769.701 178.263 769.701 188.358V313.758C769.701 323.853 777.884 332.036 787.979 332.036Z" fill="#292A2E"/>
        <path d="M821.516 192.642H797.624C793.494 192.642 790.146 195.99 790.146 200.12V214.035C790.146 218.165 793.494 221.513 797.624 221.513H821.516C825.646 221.513 828.994 218.165 828.994 214.035V200.12C828.994 195.99 825.646 192.642 821.516 192.642Z" fill="white"/>
        <path d="M828.994 195.844V202.619H815.833L813.71 200.5V192.646H825.792C826.212 192.646 826.628 192.728 827.017 192.889C827.405 193.049 827.758 193.285 828.055 193.582C828.353 193.879 828.589 194.231 828.75 194.62C828.911 195.008 828.994 195.424 828.994 195.844Z" fill="#0CBC8B"/>
        <path d="M828.994 211.535V218.31C828.994 219.159 828.657 219.973 828.057 220.573C827.457 221.173 826.643 221.51 825.794 221.51H813.71V213.443L815.833 211.533L828.994 211.535Z" fill="#0CBC8B"/>
        <path d="M805.218 192.642V200.5L803.308 202.623H790.146V195.848C790.146 195.428 790.229 195.012 790.39 194.623C790.55 194.235 790.786 193.882 791.083 193.585C791.38 193.288 791.733 193.052 792.121 192.892C792.51 192.731 792.926 192.648 793.346 192.648L805.218 192.642Z" fill="#0CBC8B"/>
        <path d="M805.218 213.445V221.512H793.349C792.929 221.512 792.513 221.429 792.124 221.268C791.736 221.108 791.383 220.872 791.086 220.575C790.789 220.278 790.553 219.925 790.393 219.537C790.232 219.148 790.149 218.732 790.149 218.312V211.537H803.311L805.218 213.445Z" fill="#0CBC8B"/>
        <path d="M979.89 299.879C979.89 304.383 978.101 308.703 974.916 311.888C971.731 315.073 967.411 316.862 962.907 316.862C958.403 316.862 954.083 315.073 950.898 311.888C947.713 308.703 945.924 304.383 945.924 299.879C945.927 297.347 946.501 294.849 947.603 292.57C948.706 290.291 950.309 288.291 952.293 286.718C954.774 284.688 957.782 283.406 960.965 283.021C964.147 282.636 967.374 283.165 970.267 284.545C973.161 285.924 975.602 288.099 977.307 290.814C979.011 293.529 979.908 296.673 979.893 299.879H979.89Z" fill="white"/>
        <path d="M945.924 313.041C943.434 315.071 940.42 316.354 937.231 316.74C934.041 317.125 930.808 316.599 927.906 315.221C925.004 313.843 922.552 311.67 920.836 308.954C919.119 306.239 918.208 303.092 918.208 299.879C918.208 296.667 919.119 293.52 920.836 290.805C922.552 288.089 925.004 285.916 927.906 284.538C930.808 283.16 934.041 282.634 937.231 283.019C940.42 283.405 943.434 284.688 945.924 286.718C942.103 289.902 940.395 294.572 940.395 299.879C940.395 305.186 942.1 310.069 945.924 313.041Z" fill="#0CBC8B"/>
        <path d="M827.136 244.809H793.27C791.545 244.809 790.146 246.208 790.146 247.933V247.934C790.146 249.659 791.545 251.058 793.27 251.058H827.136C828.861 251.058 830.26 249.659 830.26 247.934V247.933C830.26 246.208 828.861 244.809 827.136 244.809Z" fill="white"/>
        <path d="M877.013 244.809H843.147C841.422 244.809 840.023 246.208 840.023 247.933V247.934C840.023 249.659 841.422 251.058 843.147 251.058H877.013C878.738 251.058 880.137 249.659 880.137 247.934V247.933C880.137 246.208 878.738 244.809 877.013 244.809Z" fill="white"/>
        <path d="M926.889 244.809H893.023C891.298 244.809 889.899 246.208 889.899 247.933V247.934C889.899 249.659 891.298 251.058 893.023 251.058H926.889C928.614 251.058 930.013 249.659 930.013 247.934V247.933C930.013 246.208 928.614 244.809 926.889 244.809Z" fill="white"/>
        <path d="M976.765 244.809H942.899C941.174 244.809 939.775 246.208 939.775 247.933V247.934C939.775 249.659 941.174 251.058 942.899 251.058H976.765C978.49 251.058 979.889 249.659 979.889 247.934V247.933C979.889 246.208 978.49 244.809 976.765 244.809Z" fill="white"/>
    </g>
    <defs>
        <clipPath id="clip0_6_201">
            <rect width="1059.8" height="667.745" fill="white"/>
        </clipPath>
    </defs>
</svg>
