<svg width="815" height="558" viewBox="0 0 815 558" fill="none" xmlns="http://www.w3.org/2000/svg">
    <g clip-path="url(#clip0_1_498)">
        <path d="M682.577 0.493042H527.386V202.492H682.577V0.493042Z" fill="#F4F4F4"/>
        <path d="M682.577 202.492H687.611V0.493057H682.577V202.492Z" fill="#F4F4F4"/>
        <path opacity="0.05" d="M682.577 202.492H687.611V0.493057H682.577V202.492Z" fill="#292A2E"/>
        <path opacity="0.05" d="M654.307 37.29H555.656V165.696H654.307V37.29Z" fill="#292A2E"/>
        <path opacity="0.03" d="M654.306 37.29H649.165V165.696H654.306V37.29Z" fill="#292A2E"/>
        <path d="M809.497 252.167H682.576V380.253H809.497V252.167Z" fill="#F4F4F4"/>
        <path opacity="0.05" d="M786.377 275.5H705.697V356.921H786.377V275.5Z" fill="#292A2E"/>
        <path d="M809.497 380.253H814.531V252.167H809.497V380.253Z" fill="#F4F4F4"/>
        <path opacity="0.05" d="M809.497 380.253H814.531V252.167H809.497V380.253Z" fill="#292A2E"/>
        <path opacity="0.03" d="M786.376 275.5H781.235V356.921H786.376V275.5Z" fill="#292A2E"/>
        <path d="M444.9 0H66.2571V378.643H444.9V0Z" fill="#F4F4F4"/>
        <path d="M449.24 0H444.9V378.643H449.24V0Z" fill="#F4F4F4"/>
        <path opacity="0.05" d="M449.24 0H444.9V378.643H449.24V0Z" fill="#292A2E"/>
        <path opacity="0.05" d="M353.172 260.916V161.851H272.023V219.406H146.323V321.314H92.8989V378.643H146.323H156.615H426.686V260.916H353.172Z" fill="#292A2E"/>
        <path opacity="0.34" d="M341.534 172.607H282.44V183.363H341.534V172.607Z" fill="#FFFFFA"/>
        <path opacity="0.34" d="M341.534 194.896H282.44V205.652H341.534V194.896Z" fill="#FFFFFA"/>
        <path opacity="0.34" d="M341.534 217.185H282.44V227.941H341.534V217.185Z" fill="#FFFFFA"/>
        <path opacity="0.34" d="M416.207 271.357H405.315V282.113H416.207V271.357Z" fill="#FFFFFA"/>
        <path opacity="0.34" d="M416.207 293.646H405.315V304.402H416.207V293.646Z" fill="#FFFFFA"/>
        <path opacity="0.34" d="M416.207 315.935H405.315V326.691H416.207V315.935Z" fill="#FFFFFA"/>
        <path opacity="0.34" d="M396.057 271.357H385.165V282.113H396.057V271.357Z" fill="#FFFFFA"/>
        <path opacity="0.34" d="M396.057 293.646H385.165V304.402H396.057V293.646Z" fill="#FFFFFA"/>
        <path opacity="0.34" d="M396.057 315.935H385.165V326.691H396.057V315.935Z" fill="#FFFFFA"/>
        <path opacity="0.34" d="M376.452 271.357H365.56V282.113H376.452V271.357Z" fill="#FFFFFA"/>
        <path opacity="0.34" d="M376.452 293.646H365.56V304.402H376.452V293.646Z" fill="#FFFFFA"/>
        <path opacity="0.34" d="M376.452 315.935H365.56V326.691H376.452V315.935Z" fill="#FFFFFA"/>
        <path d="M444.9 187.198H368.711V0H362.41V187.198H156.615V0H150.314V187.198H66.2571V193.498H150.314V378.643H156.615V193.498H362.41V378.643H368.711V193.498H444.9V187.198Z" fill="white"/>
        <path d="M459.984 378.186H51.173V390.778H459.984V378.186Z" fill="#F4F4F4"/>
        <path opacity="0.1" d="M459.984 378.186H51.173V390.778H459.984V378.186Z" fill="#292A2E"/>
        <path opacity="0.1" d="M465.886 378.186H459.984V390.778H465.886V378.186Z" fill="#292A2E"/>
        <path opacity="0.1" d="M465.886 378.186H459.984V390.778H465.886V378.186Z" fill="#292A2E"/>
        <path d="M449.24 6.75903H66.2571V16.121H449.24V6.75903Z" fill="white"/>
        <path d="M449.24 24.2461H66.2571V33.6081H449.24V24.2461Z" fill="white"/>
        <path d="M449.24 41.733H66.2571V51.095H449.24V41.733Z" fill="white"/>
        <path d="M449.24 59.2201H66.2571V68.5821H449.24V59.2201Z" fill="white"/>
        <path d="M449.24 76.707H66.2571V86.069H449.24V76.707Z" fill="white"/>
        <path d="M408.562 0H402.823V96.629H408.562V0Z" fill="white"/>
        <path d="M406.179 110.505C410.534 110.505 414.064 106.975 414.064 102.62C414.064 98.2652 410.534 94.735 406.179 94.735C401.824 94.735 398.294 98.2652 398.294 102.62C398.294 106.975 401.824 110.505 406.179 110.505Z" fill="white"/>
        <path d="M343.877 453.631C342.838 453.631 341.8 453.539 340.777 453.355C337.969 452.851 335.312 451.715 333.008 450.032C330.703 448.349 328.812 446.165 327.477 443.643C326.189 441.094 325.515 438.279 325.508 435.423C325.501 432.568 326.161 429.749 327.436 427.194C328.82 424.078 330.863 421.299 333.424 419.049C327.144 417.62 320.698 417.063 314.266 417.392C312.932 417.492 311.612 417.057 310.598 416.184C309.584 415.311 308.959 414.07 308.859 412.736C308.759 411.402 309.194 410.082 310.067 409.068C310.94 408.054 312.181 407.429 313.515 407.329C314.429 407.26 333.66 405.929 347.304 413.729C357.793 413.099 367.795 418.029 368.304 418.289C369.5 418.889 370.409 419.939 370.831 421.209C371.252 422.479 371.152 423.865 370.552 425.061C370.255 425.653 369.844 426.181 369.343 426.615C368.842 427.048 368.26 427.379 367.632 427.588C366.362 428.009 364.976 427.909 363.78 427.309C362.044 426.484 360.244 425.799 358.399 425.26C359.829 428.327 360.645 431.644 360.799 435.025C361.033 437.695 360.649 440.383 359.676 442.88C358.702 445.378 357.167 447.617 355.188 449.425C352.053 452.153 348.033 453.648 343.877 453.631ZM344.911 424.245C344.487 424.349 344.071 424.473 343.663 424.616C342.076 425.192 340.627 426.095 339.411 427.266C338.195 428.438 337.238 429.851 336.603 431.416C335.321 434.198 335.262 436.742 336.427 438.977C337.059 440.124 337.937 441.116 338.997 441.885C340.058 442.653 341.275 443.178 342.561 443.422C343.605 443.624 344.68 443.59 345.709 443.322C346.737 443.054 347.693 442.559 348.505 441.873C349.335 441.067 349.967 440.08 350.351 438.989C350.736 437.898 350.863 436.732 350.723 435.584C350.671 433.539 350.191 431.527 349.315 429.678C348.439 427.829 347.186 426.184 345.636 424.849C345.4 424.643 345.158 424.442 344.911 424.245Z" fill="#367CFF"/>
        <g opacity="0.6">
            <path d="M343.877 453.631C342.838 453.631 341.8 453.539 340.777 453.355C337.969 452.851 335.312 451.715 333.008 450.032C330.703 448.349 328.812 446.165 327.477 443.643C326.189 441.094 325.515 438.279 325.508 435.423C325.501 432.568 326.161 429.749 327.436 427.194C328.82 424.078 330.863 421.299 333.424 419.049C327.144 417.62 320.698 417.063 314.266 417.392C312.932 417.492 311.612 417.057 310.598 416.184C309.584 415.311 308.959 414.07 308.859 412.736C308.759 411.402 309.194 410.082 310.067 409.068C310.94 408.054 312.181 407.429 313.515 407.329C314.429 407.26 333.66 405.929 347.304 413.729C357.793 413.099 367.795 418.029 368.304 418.289C369.5 418.889 370.409 419.939 370.831 421.209C371.252 422.479 371.152 423.865 370.552 425.061C370.255 425.653 369.844 426.181 369.343 426.615C368.842 427.048 368.26 427.379 367.632 427.588C366.362 428.009 364.976 427.909 363.78 427.309C362.044 426.484 360.244 425.799 358.399 425.26C359.829 428.327 360.645 431.644 360.799 435.025C361.033 437.695 360.649 440.383 359.676 442.88C358.702 445.378 357.167 447.617 355.188 449.425C352.053 452.153 348.033 453.648 343.877 453.631ZM344.911 424.245C344.487 424.349 344.071 424.473 343.663 424.616C342.076 425.192 340.627 426.095 339.411 427.266C338.195 428.438 337.238 429.851 336.603 431.416C335.321 434.198 335.262 436.742 336.427 438.977C337.059 440.124 337.937 441.116 338.997 441.885C340.058 442.653 341.275 443.178 342.561 443.422C343.605 443.624 344.68 443.59 345.709 443.322C346.737 443.054 347.693 442.559 348.505 441.873C349.335 441.067 349.967 440.08 350.351 438.989C350.736 437.898 350.863 436.732 350.723 435.584C350.671 433.539 350.191 431.527 349.315 429.678C348.439 427.829 347.186 426.184 345.636 424.849C345.4 424.643 345.158 424.442 344.911 424.245Z" fill="white"/>
        </g>
        <g opacity="0.5">
            <path d="M332.018 434.353C331.172 434.352 330.339 434.138 329.597 433.731C328.856 433.325 328.228 432.738 327.772 432.025C327.316 431.312 327.046 430.496 326.988 429.652C326.93 428.808 327.084 427.963 327.438 427.194C328.631 424.389 330.395 421.863 332.619 419.778C334.842 417.693 337.476 416.094 340.352 415.084C352.895 410.684 367.684 417.984 368.308 418.294C369.504 418.894 370.413 419.945 370.834 421.215C371.256 422.485 371.156 423.87 370.556 425.066C369.956 426.262 368.905 427.171 367.635 427.593C366.365 428.014 364.98 427.914 363.784 427.314C360.584 425.725 350.7 422.133 343.663 424.614C342.076 425.19 340.627 426.093 339.411 427.264C338.194 428.436 337.238 429.849 336.603 431.414C336.2 432.291 335.553 433.034 334.741 433.555C333.928 434.076 332.983 434.353 332.018 434.353Z" fill="white"/>
        </g>
        <path d="M128.189 360.56C128.189 360.56 97.0411 337.466 85.9591 346.548C75.9281 354.768 87.5451 387.575 87.5451 387.575C87.5451 387.575 114.321 389.992 128.189 360.56Z" fill="#367CFF"/>
        <g opacity="0.2">
            <path d="M128.189 360.56C128.189 360.56 97.0411 337.466 85.9591 346.548C75.9281 354.768 87.5451 387.575 87.5451 387.575C87.5451 387.575 114.321 389.992 128.189 360.56Z" fill="white"/>
        </g>
        <path d="M330.622 435.756C330.622 377.561 282.752 330.385 207.464 330.385C139.845 330.385 83.6121 367.772 72.8811 417.685H57.1731V485.154H86.6091C95.2881 497.869 107.449 508.743 121.796 517.714V548.504C121.795 549.502 121.991 550.49 122.372 551.412C122.754 552.334 123.313 553.172 124.018 553.878C124.723 554.583 125.561 555.143 126.483 555.525C127.404 555.907 128.392 556.104 129.39 556.104H139.59C139.824 556.104 140.054 556.088 140.284 556.069C140.513 556.088 140.743 556.104 140.978 556.104H151.178C152.176 556.104 153.164 555.907 154.086 555.525C155.007 555.143 155.845 554.583 156.55 553.878C157.255 553.172 157.814 552.334 158.196 551.412C158.577 550.49 158.773 549.502 158.772 548.504V534.2C174.586 538.831 190.983 541.165 207.461 541.128C217.821 541.158 228.161 540.201 238.34 538.271V548.506C238.339 549.504 238.535 550.492 238.917 551.414C239.298 552.336 239.857 553.174 240.563 553.88C241.268 554.586 242.105 555.146 243.027 555.528C243.949 555.91 244.937 556.106 245.935 556.106H256.135C256.369 556.106 256.599 556.09 256.829 556.071C257.058 556.09 257.288 556.106 257.523 556.106H267.723C268.721 556.106 269.709 555.909 270.631 555.527C271.552 555.145 272.39 554.585 273.095 553.88C273.8 553.174 274.359 552.336 274.741 551.414C275.122 550.492 275.318 549.504 275.317 548.506V525.46C310.3 506.9 330.622 473.667 330.622 435.756Z" fill="#367CFF"/>
        <path opacity="0.5" d="M330.622 435.756C330.622 377.561 282.752 330.385 207.464 330.385C139.845 330.385 83.6121 367.772 72.8811 417.685H57.1731V485.154H86.6091C95.2881 497.869 107.449 508.743 121.796 517.714V548.504C121.795 549.502 121.991 550.49 122.372 551.412C122.754 552.334 123.313 553.172 124.018 553.878C124.723 554.583 125.561 555.143 126.483 555.525C127.404 555.907 128.392 556.104 129.39 556.104H139.59C139.824 556.104 140.054 556.088 140.284 556.069C140.513 556.088 140.743 556.104 140.978 556.104H151.178C152.176 556.104 153.164 555.907 154.086 555.525C155.007 555.143 155.845 554.583 156.55 553.878C157.255 553.172 157.814 552.334 158.196 551.412C158.577 550.49 158.773 549.502 158.772 548.504V534.2C174.586 538.831 190.983 541.165 207.461 541.128C217.821 541.158 228.161 540.201 238.34 538.271V548.506C238.339 549.504 238.535 550.492 238.917 551.414C239.298 552.336 239.857 553.174 240.563 553.88C241.268 554.586 242.105 555.146 243.027 555.528C243.949 555.91 244.937 556.106 245.935 556.106H256.135C256.369 556.106 256.599 556.09 256.829 556.071C257.058 556.09 257.288 556.106 257.523 556.106H267.723C268.721 556.106 269.709 555.909 270.631 555.527C271.552 555.145 272.39 554.585 273.095 553.88C273.8 553.174 274.359 552.336 274.741 551.414C275.122 550.492 275.318 549.504 275.317 548.506V525.46C310.3 506.9 330.622 473.667 330.622 435.756Z" fill="white"/>
        <path d="M96.2149 401.417C98.6737 401.417 100.667 399.424 100.667 396.965C100.667 394.506 98.6737 392.513 96.2149 392.513C93.7562 392.513 91.7629 394.506 91.7629 396.965C91.7629 399.424 93.7562 401.417 96.2149 401.417Z" fill="#262626"/>
        <path d="M118.562 371.537C117.452 370.467 116.755 369.041 116.594 367.508C116.433 365.975 116.818 364.434 117.681 363.157C123.608 354.448 137.181 336.572 146.53 340.229C155.086 343.575 157.138 365.006 157.63 374.665C157.741 376.038 157.382 377.408 156.613 378.551C155.843 379.694 154.708 380.541 153.394 380.955C146.53 382.82 132.586 384.234 118.562 371.537Z" fill="#367CFF"/>
        <g opacity="0.2">
            <path d="M118.562 371.537C117.452 370.467 116.755 369.041 116.594 367.508C116.433 365.975 116.818 364.434 117.681 363.157C123.608 354.448 137.181 336.572 146.53 340.229C155.086 343.575 157.138 365.006 157.63 374.665C157.741 376.038 157.382 377.408 156.613 378.551C155.843 379.694 154.708 380.541 153.394 380.955C146.53 382.82 132.586 384.234 118.562 371.537Z" fill="white"/>
        </g>
        <path d="M240.334 339.282H173.296C170.612 339.282 168.437 341.457 168.437 344.141V344.142C168.437 346.826 170.612 349.001 173.296 349.001H240.334C243.018 349.001 245.193 346.826 245.193 344.142V344.141C245.193 341.457 243.018 339.282 240.334 339.282Z" fill="#262626"/>
        <path opacity="0.2" d="M244.777 346.11C244.396 346.971 243.773 347.702 242.983 348.215C242.194 348.728 241.273 349.001 240.332 349H173.294C172.353 349.001 171.432 348.727 170.643 348.213C169.855 347.699 169.233 346.967 168.854 346.105C169.093 345.553 169.435 345.053 169.863 344.63C170.311 344.176 170.846 343.817 171.435 343.572C172.024 343.327 172.656 343.202 173.294 343.204H240.332C241.275 343.204 242.198 343.479 242.988 343.995C243.777 344.511 244.399 345.246 244.777 346.11Z" fill="white"/>
        <path d="M57.173 485.155C65.5109 485.155 72.27 470.051 72.27 451.42C72.27 432.789 65.5109 417.685 57.173 417.685C48.8352 417.685 42.076 432.789 42.076 451.42C42.076 470.051 48.8352 485.155 57.173 485.155Z" fill="#367CFF"/>
        <g opacity="0.7">
            <path d="M57.173 485.155C65.5109 485.155 72.27 470.051 72.27 451.42C72.27 432.789 65.5109 417.685 57.173 417.685C48.8352 417.685 42.076 432.789 42.076 451.42C42.076 470.051 48.8352 485.155 57.173 485.155Z" fill="white"/>
        </g>
        <path d="M797.129 557.1H1C0.734784 557.1 0.48043 556.995 0.292893 556.807C0.105357 556.62 0 556.365 0 556.1C0 555.835 0.105357 555.581 0.292893 555.393C0.48043 555.205 0.734784 555.1 1 555.1H797.129C797.394 555.1 797.649 555.205 797.836 555.393C798.024 555.581 798.129 555.835 798.129 556.1C798.129 556.365 798.024 556.62 797.836 556.807C797.649 556.995 797.394 557.1 797.129 557.1Z" fill="#292A2E"/>
        <path d="M671.652 139.607C671.652 139.607 677.936 171.276 686.631 181.931C711.664 212.606 722.542 249.363 704.373 271.669C686.204 293.975 554.073 311.443 538.197 267.639C524.828 230.761 542.385 224.324 542.711 192.425C542.859 177.991 544.47 147.556 544.47 147.556" fill="#0A0A0A"/>
        <path d="M565.405 250.126C565.635 250.096 568.188 292.456 617.399 288.763C651.467 286.211 663.614 250.063 664.399 250.063C660.726 249.283 654.541 248.147 652.909 247.277C647.545 244.394 640.909 241.395 639.178 230.977C638.178 224.977 639.872 194.255 639.352 188.177L587.058 199.849C587.788 212.679 592.903 242.424 574.978 247.688C571.99 248.565 568.778 249.366 565.405 250.126Z" fill="#E98862"/>
        <path opacity="0.5" d="M586.32 235.538C587.139 232.898 587.666 230.177 587.893 227.422C588.468 221.136 588.353 214.805 587.551 208.544C598.179 207.11 608.192 202.723 616.451 195.882C617.422 199.468 622.763 215.138 621.284 218.546C618.491 224.988 605.357 235.538 586.32 235.538Z" fill="#0C0C0C"/>
        <path d="M595.406 225.45C616.106 224.769 641.498 213.15 643.436 185.209L645.185 160C647.122 132.06 634.018 108.393 607.712 106.569C581.405 104.745 560.171 126.031 558.233 153.969L557.459 165.13C556.716 175.85 558.469 226.667 595.406 225.45Z" fill="#E98862"/>
        <path d="M564.777 167.287C566.571 167.287 568.025 165.833 568.025 164.039C568.025 162.245 566.571 160.791 564.777 160.791C562.983 160.791 561.529 162.245 561.529 164.039C561.529 165.833 562.983 167.287 564.777 167.287Z" fill="#0C0C0C"/>
        <path d="M598.114 167.287C599.908 167.287 601.362 165.833 601.362 164.039C601.362 162.245 599.908 160.791 598.114 160.791C596.32 160.791 594.866 162.245 594.866 164.039C594.866 165.833 596.32 167.287 598.114 167.287Z" fill="#0C0C0C"/>
        <path opacity="0.5" d="M582.783 188.523C582.766 188.524 582.749 188.524 582.732 188.523C581.666 188.442 580.604 188.302 579.553 188.103C577.983 187.795 575.905 187.224 576.002 185.827C576.112 184.235 581.664 167.361 582.302 165.442C582.327 165.356 582.369 165.276 582.426 165.206C582.482 165.136 582.552 165.079 582.631 165.037C582.71 164.995 582.797 164.97 582.887 164.962C582.976 164.955 583.066 164.966 583.151 164.994C583.236 165.022 583.315 165.067 583.382 165.126C583.449 165.185 583.504 165.257 583.543 165.338C583.582 165.419 583.604 165.507 583.608 165.596C583.612 165.686 583.598 165.775 583.566 165.859C581.197 173.046 577.409 184.848 577.335 185.919C577.563 186.385 580.184 187.011 582.829 187.195C583 187.208 583.159 187.286 583.274 187.414C583.389 187.541 583.45 187.708 583.444 187.88C583.439 188.051 583.368 188.214 583.246 188.334C583.124 188.454 582.96 188.522 582.788 188.525L582.783 188.523Z" fill="#0C0C0C"/>
        <path opacity="0.5" d="M587.99 199.87C583.729 199.822 579.538 198.773 575.756 196.808C575.678 196.769 575.608 196.715 575.551 196.65C575.493 196.584 575.449 196.508 575.421 196.425C575.393 196.342 575.382 196.255 575.388 196.168C575.394 196.08 575.417 195.995 575.455 195.917C575.494 195.839 575.548 195.769 575.614 195.711C575.679 195.654 575.756 195.61 575.838 195.582C575.921 195.554 576.009 195.543 576.096 195.548C576.183 195.554 576.268 195.577 576.346 195.616C584.505 199.654 592.126 199.562 598.385 195.349C598.511 195.259 598.642 195.177 598.777 195.102C598.935 195.022 599.118 195.009 599.286 195.064C599.454 195.119 599.593 195.239 599.672 195.397C599.752 195.555 599.765 195.738 599.71 195.906C599.655 196.073 599.535 196.212 599.377 196.292C599.327 196.32 599.245 196.376 599.132 196.453C595.841 198.676 591.962 199.866 587.99 199.87Z" fill="#0C0C0C"/>
        <path d="M666.786 166.157L643.22 164.657C624.915 159.657 616.053 130.04 616.053 130.04C616.053 130.04 597.282 153.232 544.47 147.555C544.47 147.555 546.294 74.6249 624.727 86.4859C650.018 90.3099 670.519 112.914 672.233 146.163C673.434 169.464 666.786 166.157 666.786 166.157Z" fill="#0A0A0A"/>
        <path d="M641.212 193.608C649.206 194.163 656.28 186.059 656.835 178.065C657.39 170.071 651.214 165.212 643.22 164.658L638.729 169.729L634.339 193.129L641.212 193.608Z" fill="#E98862"/>
        <path d="M575.125 153.5C572.997 152.374 570.608 151.833 568.202 151.932C566.993 151.973 565.796 152.196 564.653 152.594C563.5 152.988 562.402 153.526 561.383 154.194L561.35 154.214C561.294 154.25 561.231 154.274 561.165 154.286C561.099 154.298 561.032 154.296 560.967 154.282C560.901 154.268 560.839 154.241 560.785 154.202C560.73 154.164 560.683 154.115 560.647 154.059C560.611 154.003 560.587 153.94 560.575 153.874C560.563 153.808 560.565 153.741 560.579 153.675C560.593 153.61 560.621 153.548 560.659 153.493C560.697 153.439 560.746 153.392 560.802 153.356C561.876 152.598 563.04 151.978 564.268 151.51C565.505 151.034 566.806 150.746 568.128 150.656C570.804 150.458 573.484 150.982 575.889 152.172C575.979 152.217 576.058 152.28 576.124 152.356C576.189 152.432 576.239 152.52 576.27 152.616C576.302 152.711 576.314 152.812 576.306 152.912C576.299 153.012 576.271 153.109 576.226 153.199C576.181 153.289 576.118 153.368 576.042 153.434C575.966 153.499 575.878 153.549 575.782 153.58C575.687 153.611 575.587 153.624 575.486 153.616C575.386 153.609 575.289 153.581 575.199 153.536L575.18 153.526L575.125 153.5Z" fill="#0C0C0C"/>
        <path d="M596.5 153.665C599.043 152.806 601.769 152.646 604.394 153.2C605.693 153.465 606.944 153.925 608.105 154.562C609.26 155.19 610.331 155.96 611.293 156.855C611.392 156.943 611.452 157.067 611.461 157.199C611.47 157.331 611.427 157.461 611.342 157.562C611.256 157.663 611.135 157.727 611.003 157.74C610.871 157.753 610.74 157.714 610.636 157.632L610.606 157.607C609.686 156.808 608.669 156.127 607.579 155.581C606.5 155.033 605.344 154.652 604.151 154.45C601.78 154.031 599.34 154.248 597.08 155.079L597.025 155.1C596.932 155.136 596.832 155.153 596.732 155.151C596.631 155.148 596.532 155.126 596.441 155.085C596.349 155.045 596.266 154.986 596.197 154.913C596.128 154.841 596.074 154.755 596.038 154.661C596.002 154.568 595.985 154.468 595.987 154.368C595.99 154.267 596.012 154.169 596.053 154.077C596.093 153.985 596.152 153.902 596.224 153.833C596.297 153.764 596.383 153.71 596.476 153.674L596.5 153.665Z" fill="#0C0C0C"/>
        <path opacity="0.52" d="M587.832 206.181C587.062 206.184 586.292 206.122 585.532 205.995C585.446 205.981 585.363 205.95 585.289 205.904C585.215 205.858 585.15 205.798 585.099 205.727C585.048 205.656 585.012 205.575 584.992 205.49C584.972 205.405 584.969 205.317 584.983 205.231C584.997 205.145 585.028 205.062 585.074 204.988C585.12 204.914 585.18 204.849 585.251 204.798C585.322 204.747 585.403 204.711 585.488 204.691C585.573 204.671 585.661 204.668 585.747 204.682C590.321 205.431 592.636 203.447 592.733 203.362C592.798 203.304 592.874 203.259 592.957 203.23C593.039 203.201 593.127 203.189 593.214 203.194C593.301 203.199 593.386 203.221 593.465 203.258C593.544 203.296 593.614 203.349 593.673 203.414C593.731 203.48 593.776 203.556 593.805 203.638C593.833 203.721 593.846 203.808 593.841 203.895C593.836 203.982 593.814 204.068 593.776 204.147C593.738 204.225 593.685 204.296 593.62 204.354C591.96 205.613 589.915 206.259 587.832 206.181Z" fill="#0C0C0C"/>
        <path d="M616.278 126.8C616.278 126.8 612.078 156.847 643.212 164.035" stroke="#0C0C0C" stroke-width="0.5" stroke-miterlimit="10"/>
        <path opacity="0.1" d="M603.759 188.08C607.176 188.044 609.924 185.983 609.898 183.477C609.871 180.971 607.08 178.968 603.663 179.005C600.246 179.041 597.498 181.102 597.524 183.608C597.551 186.114 600.342 188.116 603.759 188.08Z" fill="#0C0C0C"/>
        <path opacity="0.1" d="M566.925 182.84C566.944 185.34 564.196 187.403 560.779 187.44C560.189 187.446 559.599 187.391 559.02 187.275C558.482 184.357 558.104 181.532 557.85 178.904C558.754 178.548 559.717 178.365 560.688 178.364C564.1 178.326 566.9 180.328 566.925 182.84Z" fill="#0C0C0C"/>
        <path d="M729.989 501.812L738.894 556.1H516.795L525.097 501.484L729.989 501.812Z" fill="#262626"/>
        <path d="M618.528 278.236C652.62 276.629 654.055 247.692 654.055 247.692C654.055 247.692 670.947 248.784 682.176 250.303C700.56 252.79 712.688 259.024 722.34 268.676C731.318 277.654 736.784 287.368 731 349.386C726.811 394.292 729.989 501.812 729.989 501.812L525.1 501.484C525.1 501.484 505.98 363.6 504.26 343.386C500.978 304.797 507.973 272.175 515.984 264.163C532.456 247.692 560.812 247.692 574.973 247.694C575.2 247.694 572.1 280.424 618.528 278.236Z" fill="#367CFF"/>
        <path d="M272.533 227.134C271.906 226.749 271.206 226.495 270.478 226.389C269.749 226.283 269.006 226.327 268.295 226.518C267.584 226.708 266.919 227.042 266.341 227.498C265.763 227.954 265.284 228.523 264.933 229.171C264.298 230.447 264.171 231.917 264.578 233.284C264.985 234.65 265.895 235.811 267.125 236.532L273.363 240.359L248.133 237.318C245.333 236.93 241.652 238.246 241.424 241.418C241.257 242.631 241.506 243.866 242.132 244.919C242.757 245.973 243.721 246.783 244.866 247.218C244.854 247.245 244.846 247.273 244.841 247.302C244.84 247.323 244.84 247.344 244.841 247.365L240.524 246.765C239.729 246.655 238.92 246.724 238.155 246.965C237.389 247.206 236.687 247.614 236.098 248.159C235.51 248.704 235.049 249.373 234.75 250.118C234.451 250.862 234.321 251.664 234.369 252.465C234.473 253.741 235.015 254.941 235.902 255.863C236.79 256.786 237.968 257.373 239.239 257.526L241.076 257.78C241.093 257.838 241.121 257.893 241.158 257.941C239.89 258.055 238.702 258.612 237.804 259.515C236.906 260.418 236.355 261.608 236.247 262.877C236.177 264.301 236.651 265.699 237.572 266.787C238.493 267.875 239.793 268.573 241.209 268.74L245.724 269.365C245.653 269.401 245.592 269.454 245.546 269.519C245.5 269.583 245.47 269.658 245.458 269.737C245.449 269.831 245.468 269.926 245.512 270.01C244.429 270.418 243.504 271.163 242.874 272.134C242.245 273.106 241.942 274.254 242.012 275.41C242.116 276.686 242.658 277.886 243.545 278.808C244.433 279.731 245.611 280.318 246.882 280.471L285.377 285.794C290.763 286.539 296.248 285.658 301.129 283.265C306.011 280.872 310.067 277.076 312.777 272.363L321.501 257.188L272.533 227.134Z" fill="#E98862"/>
        <g opacity="0.2">
            <path d="M269.823 250.352C269.804 250.481 269.736 250.598 269.632 250.677C269.528 250.757 269.397 250.792 269.267 250.776L245.278 247.852C245.211 247.846 245.146 247.827 245.087 247.796C245.027 247.764 244.975 247.721 244.933 247.669C244.89 247.617 244.859 247.557 244.84 247.492C244.822 247.428 244.816 247.36 244.824 247.293C244.833 247.227 244.854 247.162 244.888 247.104C244.921 247.046 244.966 246.995 245.02 246.955C245.073 246.914 245.135 246.885 245.2 246.869C245.265 246.852 245.333 246.849 245.399 246.86L269.389 249.783C269.521 249.799 269.64 249.867 269.722 249.971C269.804 250.076 269.84 250.208 269.824 250.34L269.823 250.352Z" fill="#0C0C0C"/>
        </g>
        <g opacity="0.2">
            <path d="M268.825 260.967C268.807 261.096 268.738 261.213 268.634 261.292C268.531 261.372 268.4 261.407 268.27 261.392L241.5 258.129C241.369 258.113 241.249 258.045 241.167 257.94C241.086 257.836 241.049 257.703 241.065 257.572C241.086 257.442 241.154 257.325 241.258 257.244C241.361 257.163 241.491 257.124 241.622 257.136L268.394 260.399C268.459 260.407 268.522 260.427 268.58 260.46C268.637 260.492 268.687 260.535 268.728 260.587C268.768 260.639 268.798 260.698 268.816 260.761C268.833 260.824 268.838 260.891 268.83 260.956L268.825 260.967Z" fill="#0C0C0C"/>
        </g>
        <g opacity="0.2">
            <path d="M267.811 272.471C267.792 272.6 267.724 272.717 267.62 272.797C267.517 272.876 267.386 272.912 267.256 272.896L245.9 270.296C245.768 270.28 245.649 270.212 245.567 270.108C245.485 270.003 245.448 269.871 245.464 269.739C245.48 269.607 245.548 269.487 245.652 269.406C245.757 269.324 245.889 269.287 246.021 269.303L267.377 271.903C267.442 271.911 267.505 271.932 267.563 271.964C267.62 271.996 267.67 272.039 267.711 272.091C267.751 272.143 267.781 272.202 267.799 272.265C267.816 272.329 267.821 272.395 267.813 272.46L267.811 272.471Z" fill="#0C0C0C"/>
        </g>
        <path d="M209.747 306.975C244.801 306.975 273.217 278.558 273.217 243.505C273.217 208.451 244.801 180.035 209.747 180.035C174.694 180.035 146.277 208.451 146.277 243.505C146.277 278.558 174.694 306.975 209.747 306.975Z" fill="#0CBC8B"/>
        <g opacity="0.1">
            <path d="M209.747 293.821C237.536 293.821 260.063 271.294 260.063 243.505C260.063 215.716 237.536 193.189 209.747 193.189C181.958 193.189 159.431 215.716 159.431 243.505C159.431 271.294 181.958 293.821 209.747 293.821Z" fill="#292A2E"/>
        </g>
        <path d="M206.384 267.649L206.119 258.992C210.8 259.228 214.304 258.579 217.154 256.615C220.569 254.261 221.095 251.809 219.205 249.067C214.933 242.867 199.105 253.941 191.605 243.067C186.787 236.076 188.561 228.286 196.197 223.024C198.345 221.497 200.799 220.456 203.389 219.974C205.98 219.491 208.644 219.579 211.197 220.23L210.263 228.363C206.7 227.88 204.12 228.111 201.603 229.845C198.703 231.845 197.937 234.096 199.803 236.803C203.763 242.55 219.325 231.086 227.263 242.603C232.032 249.523 230.902 257.685 222.081 263.763C217.444 266.809 211.906 268.18 206.384 267.649ZM188.784 219.424L194.663 215.372L200.644 224.051L194.765 228.102L188.784 219.424ZM217.731 261.424L223.609 257.373L230.172 266.896L224.293 270.947L217.731 261.424Z" fill="white"/>
        <path d="M275.605 241.849L267.126 236.532C265.896 235.811 264.986 234.65 264.579 233.284C264.172 231.917 264.299 230.447 264.934 229.171C265.285 228.523 265.764 227.954 266.342 227.498C266.92 227.042 267.585 226.708 268.296 226.518C269.007 226.327 269.75 226.283 270.479 226.389C271.207 226.495 271.907 226.749 272.534 227.134" fill="#E98862"/>
        <path d="M598.784 376.963L572.412 355.109C571.845 354.639 571.189 354.29 570.482 354.082C569.776 353.874 569.035 353.813 568.304 353.901C567.573 353.989 566.868 354.226 566.231 354.595C565.595 354.965 565.04 355.461 564.601 356.052C563.791 357.226 563.457 358.664 563.667 360.075C563.877 361.486 564.615 362.765 565.732 363.652L571.367 368.322L597.889 382.058L598.784 376.963Z" fill="#E98862"/>
        <path d="M571.367 368.319L546.82 361.745C544.103 360.966 540.272 361.745 539.6 364.853C539.263 366.031 539.335 367.288 539.805 368.419C540.274 369.551 541.113 370.49 542.185 371.083C542.171 371.106 542.159 371.131 542.151 371.157C542.151 371.178 542.151 371.199 542.151 371.22L537.962 370.02C537.19 369.799 536.379 369.752 535.587 369.882C534.795 370.013 534.041 370.317 533.381 370.774C532.721 371.231 532.171 371.829 531.77 372.524C531.369 373.22 531.127 373.996 531.062 374.796C530.984 376.074 531.351 377.339 532.099 378.378C532.847 379.417 533.931 380.165 535.168 380.496L536.951 381.007C536.961 381.065 536.98 381.121 537.008 381.173C535.736 381.108 534.481 381.494 533.465 382.262C532.449 383.03 531.736 384.131 531.451 385.373C531.182 386.772 531.454 388.221 532.212 389.428C532.97 390.634 534.158 391.508 535.535 391.873L539.917 393.129C539.842 393.155 539.774 393.199 539.719 393.256C539.664 393.314 539.624 393.384 539.601 393.46C539.579 393.552 539.584 393.649 539.615 393.738C538.486 393.99 537.468 394.596 536.708 395.469C535.949 396.341 535.488 397.433 535.394 398.586C535.316 399.864 535.683 401.129 536.431 402.168C537.179 403.207 538.263 403.955 539.5 404.286L576.857 414.992C582.083 416.49 587.637 416.393 592.808 414.713C597.979 413.034 602.53 409.848 605.878 405.565L616.659 391.775L571.367 368.319Z" fill="#E98862"/>
        <g opacity="0.2">
            <path d="M566.45 377.711C566.413 377.836 566.329 377.942 566.215 378.006C566.101 378.07 565.966 378.087 565.84 378.053L542.5 371.77C542.435 371.755 542.373 371.726 542.319 371.687C542.265 371.647 542.219 371.597 542.185 371.54C542.15 371.482 542.128 371.418 542.118 371.352C542.109 371.285 542.113 371.218 542.131 371.153C542.148 371.088 542.179 371.027 542.22 370.975C542.261 370.922 542.313 370.878 542.372 370.845C542.43 370.813 542.495 370.793 542.562 370.786C542.628 370.779 542.696 370.785 542.76 370.805L566.096 377.087C566.16 377.104 566.219 377.133 566.271 377.173C566.323 377.213 566.367 377.263 566.4 377.32C566.432 377.377 566.454 377.44 566.462 377.505C566.471 377.57 566.466 377.636 566.449 377.7L566.45 377.711Z" fill="#0C0C0C"/>
        </g>
        <g opacity="0.2">
            <path d="M563.963 388.08C563.926 388.205 563.842 388.311 563.728 388.374C563.614 388.438 563.48 388.455 563.354 388.421L537.31 381.41C537.246 381.393 537.187 381.364 537.135 381.324C537.083 381.284 537.039 381.234 537.006 381.177C536.974 381.12 536.952 381.057 536.944 380.992C536.935 380.927 536.94 380.86 536.957 380.797C536.996 380.672 537.081 380.565 537.195 380.5C537.308 380.434 537.443 380.414 537.571 380.444L563.614 387.455C563.677 387.472 563.737 387.501 563.789 387.542C563.841 387.582 563.885 387.631 563.917 387.688C563.95 387.745 563.971 387.808 563.98 387.873C563.988 387.938 563.984 388.005 563.967 388.068L563.963 388.08Z" fill="#0C0C0C"/>
        </g>
        <g opacity="0.2">
            <path d="M561.335 399.325C561.298 399.45 561.214 399.556 561.1 399.62C560.986 399.684 560.851 399.701 560.725 399.667L539.951 394.074C539.888 394.057 539.828 394.028 539.776 393.988C539.724 393.947 539.68 393.898 539.648 393.841C539.581 393.726 539.564 393.589 539.598 393.461C539.632 393.333 539.716 393.224 539.831 393.158C539.946 393.091 540.083 393.074 540.211 393.108L560.985 398.701C561.048 398.718 561.108 398.747 561.16 398.787C561.212 398.828 561.256 398.877 561.289 398.934C561.321 398.991 561.343 399.054 561.351 399.119C561.359 399.184 561.355 399.251 561.338 399.314L561.335 399.325Z" fill="#0C0C0C"/>
        </g>
        <path d="M579.708 424.689L749.373 473.665C756.207 475.479 763.415 475.324 770.164 473.218C776.914 471.111 782.931 467.14 787.52 461.761C792.11 456.382 795.085 449.816 796.103 442.819C797.121 435.822 796.14 428.679 793.273 422.216L735.429 284.416C727.029 265.484 695.661 246.056 676.729 254.456C657.797 262.856 658.471 295.897 666.87 314.828L701.651 387.293L595.871 362.837L579.708 424.689Z" fill="#367CFF"/>
        <path d="M729.244 468.354C729.197 468.354 729.15 468.348 729.105 468.335L579.569 425.17C579.444 425.134 579.338 425.05 579.273 424.937C579.209 424.823 579.191 424.689 579.224 424.563L595.387 362.71C595.42 362.583 595.501 362.474 595.613 362.407C595.726 362.339 595.86 362.319 595.987 362.349L700.76 386.571L666.429 315.044C666.379 314.926 666.377 314.793 666.422 314.673C666.468 314.553 666.558 314.455 666.673 314.4C666.789 314.344 666.921 314.335 667.043 314.374C667.165 314.414 667.268 314.498 667.329 314.611L702.11 387.076C702.151 387.161 702.167 387.256 702.156 387.349C702.145 387.443 702.108 387.532 702.049 387.605C701.99 387.678 701.912 387.732 701.824 387.763C701.736 387.794 701.64 387.8 701.549 387.78L596.232 363.433L580.315 424.344L729.383 467.374C729.499 467.408 729.598 467.482 729.663 467.583C729.728 467.684 729.755 467.805 729.738 467.924C729.721 468.043 729.662 468.152 729.571 468.231C729.48 468.31 729.364 468.354 729.244 468.354Z" fill="#0C0C0C"/>
        <path d="M719.124 391.591C719.088 391.591 719.052 391.587 719.017 391.58L701.552 387.78C701.488 387.766 701.426 387.74 701.372 387.703C701.317 387.666 701.27 387.618 701.234 387.563C701.198 387.507 701.174 387.445 701.162 387.38C701.15 387.315 701.151 387.248 701.165 387.184C701.179 387.119 701.206 387.058 701.244 387.004C701.282 386.95 701.33 386.904 701.386 386.868C701.442 386.833 701.504 386.809 701.569 386.798C701.634 386.786 701.701 386.788 701.765 386.803L719.23 390.603C719.35 390.63 719.456 390.7 719.528 390.799C719.599 390.899 719.632 391.022 719.619 391.144C719.605 391.266 719.548 391.379 719.457 391.462C719.365 391.544 719.247 391.59 719.124 391.591Z" fill="#0C0C0C"/>
        <path d="M502.356 320.743L500.128 291.905" stroke="#0C0C0C" stroke-linecap="round" stroke-linejoin="round"/>
        <path d="M416.14 439.441C411.091 439.448 406.093 438.433 401.447 436.456C396.8 434.48 392.602 431.583 389.105 427.941L263.105 296.95L317.157 244.956L418.293 350.1L517.367 262.953L566.9 319.264L440.9 430.1C434.062 436.129 425.257 439.451 416.14 439.441Z" fill="#367CFF"/>
        <path d="M503.896 338.277L502.904 338.402L507.056 371.355L508.048 371.23L503.896 338.277Z" fill="#0C0C0C"/>
    </g>
    <defs>
        <clipPath id="clip0_1_498">
            <rect width="814.531" height="557.1" fill="white"/>
        </clipPath>
    </defs>
</svg>
