<svg width="806" height="773" viewBox="0 0 806 773" fill="none" xmlns="http://www.w3.org/2000/svg">
    <g clip-path="url(#clip0_1_439)">
        <path opacity="0.03" d="M126.6 772.246C42.272 772.246 -18.923 691.051 5.37201 610.299C19.111 564.632 46.406 520.074 98.313 493.048C240.358 419.091 227.845 439.37 294.8 315.092C361.755 190.814 543.224 161.332 638.311 248.874C772.8 372.692 682.336 471.331 767.445 556.439C768.331 557.326 769.206 558.218 770.069 559.114C846.969 638.96 789.101 772.246 678.248 772.246H126.6Z" fill="#292A2E"/>
        <path d="M486.571 333.967V267.725H170V333.966C170.003 368.604 181.365 402.285 202.343 429.848C223.321 457.411 252.759 477.335 286.144 486.566C291.044 487.942 295.361 490.882 298.435 494.938C301.51 498.994 303.174 503.945 303.174 509.034C303.174 514.124 301.51 519.075 298.435 523.131C295.361 527.187 291.044 530.127 286.144 531.503C252.758 540.734 223.319 560.658 202.341 588.222C181.363 615.786 170.002 649.469 170 684.108V750.351H486.571V684.108C486.567 649.47 475.206 615.789 454.228 588.226C433.25 560.663 403.812 540.739 370.427 531.508C365.526 530.133 361.209 527.193 358.134 523.137C355.059 519.08 353.395 514.13 353.395 509.039C353.395 503.949 355.059 498.999 358.134 494.942C361.209 490.886 365.526 487.946 370.427 486.571C403.812 477.34 433.25 457.416 454.228 429.854C475.206 402.291 486.568 368.609 486.571 333.971" fill="#367CFF"/>
        <path opacity="0.8" d="M486.571 333.967V267.725H170V333.966C170.003 368.604 181.365 402.285 202.343 429.848C223.321 457.411 252.759 477.335 286.144 486.566C291.044 487.942 295.361 490.882 298.435 494.938C301.51 498.994 303.174 503.945 303.174 509.034C303.174 514.124 301.51 519.075 298.435 523.131C295.361 527.187 291.044 530.127 286.144 531.503C252.758 540.734 223.319 560.658 202.341 588.222C181.363 615.786 170.002 649.469 170 684.108V750.351H486.571V684.108C486.567 649.47 475.206 615.789 454.228 588.226C433.25 560.663 403.812 540.739 370.427 531.508C365.526 530.133 361.209 527.193 358.134 523.137C355.059 519.08 353.395 514.13 353.395 509.039C353.395 503.949 355.059 498.999 358.134 494.942C361.209 490.886 365.526 487.946 370.427 486.571C403.812 477.34 433.25 457.416 454.228 429.854C475.206 402.291 486.568 368.609 486.571 333.971" fill="white"/>
        <path d="M487.571 751.351H169V684.109C169.055 649.264 180.508 615.394 201.611 587.666C222.715 559.939 252.311 539.877 285.882 530.542C290.572 529.225 294.703 526.411 297.645 522.529C300.588 518.647 302.18 513.909 302.18 509.037C302.18 504.166 300.588 499.428 297.645 495.546C294.703 491.664 290.572 488.85 285.882 487.533C252.311 478.197 222.716 458.135 201.612 430.408C180.509 402.681 169.055 368.811 169 333.966V266.725H487.571V333.967C487.516 368.811 476.064 402.681 454.961 430.408C433.858 458.135 404.263 478.197 370.693 487.533C366.003 488.85 361.872 491.664 358.93 495.546C355.987 499.428 354.395 504.166 354.395 509.037C354.395 513.909 355.987 518.647 358.93 522.529C361.872 526.411 366.003 529.225 370.693 530.542C404.263 539.878 433.858 559.94 454.961 587.668C476.064 615.395 487.516 649.265 487.571 684.109V751.351ZM171.004 749.351H485.571V684.109C485.517 649.702 474.208 616.258 453.371 588.879C432.533 561.5 403.311 541.689 370.162 532.47C365.049 531.037 360.546 527.972 357.337 523.741C354.129 519.511 352.393 514.347 352.393 509.037C352.393 503.728 354.129 498.564 357.337 494.334C360.546 490.103 365.049 487.038 370.162 485.605C403.311 476.386 432.533 456.576 453.371 429.197C474.208 401.818 485.517 368.374 485.571 333.967V268.725H171V333.966C171.055 368.373 182.364 401.818 203.202 429.197C224.041 456.576 253.264 476.386 286.413 485.605C291.525 487.038 296.028 490.104 299.236 494.334C302.443 498.565 304.179 503.728 304.179 509.037C304.179 514.347 302.443 519.51 299.236 523.741C296.028 527.971 291.525 531.037 286.413 532.47C253.264 541.688 224.04 561.498 203.202 588.878C182.363 616.257 171.054 649.702 171 684.109L171.004 749.351Z" fill="#292A2E"/>
        <path d="M504.962 255.667C504.963 258.818 503.73 261.844 501.527 264.097C499.324 266.35 496.325 267.65 493.175 267.719C493.083 267.725 492.997 267.725 492.904 267.725H164.204C164.111 267.725 164.025 267.725 163.933 267.719C160.759 267.648 157.742 266.329 155.535 264.047C153.329 261.765 152.111 258.705 152.147 255.53C152.182 252.356 153.468 249.324 155.726 247.093C157.983 244.861 161.03 243.609 164.204 243.61H492.9C494.484 243.609 496.052 243.921 497.515 244.527C498.979 245.132 500.308 246.02 501.429 247.14C502.549 248.26 503.437 249.589 504.043 251.052C504.65 252.515 504.962 254.083 504.962 255.667Z" fill="#292A2E"/>
        <path d="M333.879 639.231V496.06C333.757 490.621 335.424 485.292 338.624 480.893C341.823 476.493 346.379 473.265 351.591 471.705C407.605 456.291 459.716 406.044 462.277 348.327C462.413 345.232 459.694 343.193 456.596 343.193H199.972C196.872 343.193 194.155 345.232 194.291 348.327C196.852 406.044 248.963 456.291 304.977 471.705C312.904 473.898 322.693 483.612 322.693 496.419V639.241C322.693 649.541 318.814 658.287 311.532 665.569C305.519 671.583 214.971 750.349 214.971 750.349H441.6C441.6 750.349 350.215 670.684 345.183 665.649C337.9 658.371 333.879 649.529 333.879 639.231Z" fill="#FAFAFA"/>
        <path d="M505.047 759.256C505.048 762.407 503.815 765.433 501.612 767.686C499.409 769.939 496.41 771.239 493.26 771.307C493.168 771.313 493.082 771.313 492.99 771.313H164.29C164.198 771.313 164.112 771.313 164.02 771.307C160.847 771.236 157.829 769.917 155.622 767.635C153.416 765.353 152.198 762.293 152.234 759.119C152.269 755.945 153.555 752.913 155.812 750.681C158.069 748.449 161.116 747.198 164.29 747.198H492.99C496.188 747.198 499.255 748.469 501.516 750.73C503.777 752.991 505.047 756.058 505.047 759.256Z" fill="#292A2E"/>
        <path d="M586.641 770.584C664.252 770.584 727.168 707.668 727.168 630.057C727.168 552.446 664.252 489.53 586.641 489.53C509.03 489.53 446.114 552.446 446.114 630.057C446.114 707.668 509.03 770.584 586.641 770.584Z" fill="white"/>
        <path d="M627.635 765.217C553.106 787.817 474.084 745.578 451.48 671.05C428.876 596.522 471.119 517.5 545.647 494.9C620.175 472.3 699.2 514.535 721.8 589.063C744.4 663.591 702.162 742.613 627.635 765.217ZM546.061 496.261C472.286 518.636 430.469 596.861 452.845 670.636C475.221 744.411 553.445 786.228 627.221 763.852C700.997 741.476 742.812 663.252 720.437 589.477C698.062 515.702 619.837 473.885 546.061 496.261Z" fill="#292A2E"/>
        <path opacity="0.45" d="M586.641 753.779C654.971 753.779 710.363 698.387 710.363 630.057C710.363 561.727 654.971 506.335 586.641 506.335C518.311 506.335 462.919 561.727 462.919 630.057C462.919 698.387 518.311 753.779 586.641 753.779Z" fill="#367CFF"/>
        <path d="M586.641 637.496C590.749 637.496 594.08 634.165 594.08 630.057C594.08 625.948 590.749 622.618 586.641 622.618C582.533 622.618 579.202 625.948 579.202 630.057C579.202 634.165 582.533 637.496 586.641 637.496Z" fill="#292A2E"/>
        <path d="M678.348 679.663C678.258 679.69 678.164 679.7 678.071 679.69C677.978 679.681 677.887 679.653 677.805 679.609L586.305 630.685C586.191 630.624 586.096 630.534 586.03 630.423C585.963 630.313 585.928 630.186 585.928 630.057L585.897 557.923C585.897 557.734 585.972 557.552 586.106 557.419C586.24 557.285 586.421 557.21 586.61 557.21C586.799 557.21 586.98 557.285 587.114 557.419C587.248 557.552 587.323 557.734 587.323 557.923L587.354 629.63L678.477 678.353C678.601 678.419 678.703 678.521 678.77 678.646C678.836 678.77 678.864 678.911 678.85 679.052C678.837 679.192 678.781 679.325 678.692 679.434C678.603 679.543 678.483 679.622 678.348 679.663Z" fill="#292A2E"/>
        <path d="M214.06 428.337C214.06 428.337 211.14 443.475 196.966 444.319C182.792 445.163 185.866 456.455 185.866 456.455H240.032V429.392L214.06 428.337Z" fill="#367CFF"/>
        <path d="M244.964 382.8C244.964 382.8 249.026 397.673 236.68 404.686C224.334 411.699 232.08 420.476 232.08 420.476L280.68 396.566L268.735 372.283L244.964 382.8Z" fill="#367CFF"/>
        <path d="M239.822 392.634L203.2 254.453C200.42 239.188 204.6 232.571 211.048 226.143C222.37 214.85 269.284 190.814 269.284 190.814L325.566 190.661C340.49 190.661 355.166 205.377 355.166 220.3C355.166 235.223 339.994 247.879 325.066 247.879L255.758 254.8L274.545 381.323L239.822 392.634Z" fill="#262626"/>
        <path d="M274.545 381.318L267.149 331.508L229.679 354.365L239.822 392.634L274.545 381.318Z" fill="#0C0C0C"/>
        <path d="M283.039 218.777C283.039 218.777 259.379 224.05 235.947 247.482C221.74 261.689 222.905 287.399 225.036 336.846L248.309 302.471L273.835 256.434L283.039 218.777Z" fill="#0C0C0C"/>
        <path d="M364.958 190.644L326.736 190.464L326.721 190.964H315.147C315.147 190.964 286.157 217.642 262.815 234.453C245.837 246.68 235.48 258.337 234.584 271.042C232.399 302.013 207.759 434.102 207.759 434.102L244.842 439.717L277.383 281.861C277.383 281.861 328.27 258.403 340.04 250.239C351.123 242.552 358.952 239.58 362.619 231.191C368.954 216.705 364.958 190.644 364.958 190.644Z" fill="#262626"/>
        <path d="M322.077 200.273L260.07 201.094L294.853 221.869L323.8 206.923C324.498 206.549 325.05 205.951 325.368 205.225C325.686 204.499 325.75 203.688 325.552 202.921C325.353 202.154 324.902 201.476 324.272 200.996C323.642 200.516 322.869 200.261 322.077 200.273Z" fill="#292A2E"/>
        <path opacity="0.2" d="M322.077 200.273L260.07 201.094L294.853 221.869L323.8 206.923C324.498 206.549 325.05 205.951 325.368 205.225C325.686 204.499 325.75 203.688 325.552 202.921C325.353 202.154 324.902 201.476 324.272 200.996C323.642 200.516 322.869 200.261 322.077 200.273Z" fill="white"/>
        <path d="M260.425 89.032L242.888 145.86L207.759 191.854L228.28 215.41L270.073 168.764C271.999 167.242 273.505 165.254 274.449 162.988L275.101 161.413L299.238 103.007L260.425 89.032Z" fill="#367CFF"/>
        <path d="M287.443 28.7081C287.443 28.7081 280.376 23.3741 278.625 11.0961C277.269 1.58906 286.038 7.74806 286.038 7.74806C286.038 7.74806 285.129 0.894059 290.121 1.57406C295.113 2.25406 297.912 9.45506 297.912 9.45506" fill="#0C0C0C"/>
        <path d="M315.936 2.37598C315.936 2.37598 340.716 5.03298 331.758 38.611L329.565 38.758L325.114 39.058" fill="#0C0C0C"/>
        <path d="M291.593 73.679C291.702 73.665 292.911 93.726 316.216 91.979C332.35 90.77 338.102 73.653 338.472 73.653C336.732 73.283 334.583 72.722 333.728 72.529C331.866 72.097 330.18 71.1082 328.894 69.6943C327.608 68.2804 326.782 66.5084 326.528 64.614C326.056 61.771 326.857 47.224 326.61 44.347L301.845 49.874C302.191 55.95 304.613 70.036 296.124 72.529C294.712 72.94 293.191 73.319 291.593 73.679Z" fill="#E98862"/>
        <path opacity="0.52" d="M301.5 66.7711C301.888 65.5207 302.138 64.2317 302.245 62.9271C302.517 59.9501 302.463 56.9522 302.083 53.9871C307.117 53.3066 311.859 51.2279 315.77 47.9871C316.23 49.6871 318.759 57.1061 318.059 58.7201C316.733 61.7751 310.514 66.7711 301.5 66.7711Z" fill="#0C0C0C"/>
        <path d="M306.609 62.8001C316.38 61.9241 328.073 55.7511 328.242 42.4891L328.394 30.5221C328.563 17.2601 321.734 6.42208 309.247 6.26108C296.76 6.10008 287.289 16.7351 287.121 30.0001L287.053 35.3001C287.063 37.1197 287.197 38.9366 287.453 40.7381C288.094 45.5031 289.086 52.7501 292.321 57.6511C295.372 62.2741 300.367 63.3601 306.609 62.8001Z" fill="#E98862"/>
        <path opacity="0.52" d="M302.076 50.678C300.06 50.7695 298.05 50.3854 296.21 49.557C296.137 49.5221 296.079 49.4601 296.051 49.384C296.022 49.308 296.024 49.2237 296.056 49.1489C296.087 49.0741 296.147 49.0145 296.222 48.9827C296.297 48.9508 296.381 48.9491 296.457 48.978C300.423 50.669 304.024 50.421 306.87 48.262C306.927 48.2165 306.987 48.1741 307.049 48.135C307.122 48.0934 307.208 48.0822 307.288 48.1041C307.369 48.1259 307.438 48.179 307.48 48.2515C307.521 48.324 307.532 48.4101 307.51 48.4909C307.489 48.5716 307.436 48.6404 307.363 48.682C307.34 48.696 307.303 48.725 307.251 48.764C305.755 49.9031 303.953 50.5696 302.076 50.678Z" fill="#0C0C0C"/>
        <path opacity="0.52" d="M302.17 53.666C301.806 53.6881 301.441 53.6794 301.078 53.64C300.995 53.6313 300.919 53.5898 300.866 53.5249C300.813 53.4599 300.789 53.3767 300.798 53.2935C300.806 53.2104 300.848 53.1341 300.913 53.0815C300.978 53.0289 301.061 53.0043 301.144 53.013C301.715 53.1181 302.302 53.1001 302.866 52.9603C303.429 52.8204 303.956 52.5619 304.412 52.202C304.471 52.1429 304.551 52.1096 304.635 52.1095C304.718 52.1094 304.798 52.1425 304.858 52.2015C304.917 52.2605 304.95 52.3406 304.95 52.4242C304.95 52.5077 304.917 52.5879 304.858 52.647C304.107 53.2871 303.157 53.6472 302.17 53.666Z" fill="#0C0C0C"/>
        <path d="M291.244 37.845C292.093 37.845 292.782 37.1565 292.782 36.307C292.782 35.4576 292.093 34.769 291.244 34.769C290.395 34.769 289.706 35.4576 289.706 36.307C289.706 37.1565 290.395 37.845 291.244 37.845Z" fill="#0C0C0C"/>
        <path d="M306.272 36.9021C307.121 36.9021 307.81 36.2135 307.81 35.364C307.81 34.5146 307.121 33.826 306.272 33.826C305.423 33.826 304.734 34.5146 304.734 35.364C304.734 36.2135 305.423 36.9021 306.272 36.9021Z" fill="#0C0C0C"/>
        <path d="M327.415 46.519C331.21 46.568 334.338 42.547 334.386 38.752C334.434 34.957 331.386 32.826 327.586 32.777L325.6 35.3L324.15 46.483L327.415 46.519Z" fill="#E98862"/>
        <path d="M323.64 40.422C323.64 40.422 322.358 21.656 316.668 20.497C312.878 19.725 303.688 25.097 295.175 23.477C291.451 22.767 287.915 23.689 287.556 25.448C287.413 26.148 285.093 16.135 290.925 8.53799C295.568 2.48999 310.764 0.781989 317.677 2.76599C336.819 8.25699 328.372 33.6 328.372 33.6L327.519 40.07L323.64 40.422Z" fill="#0C0C0C"/>
        <g opacity="0.52">
            <path d="M299.782 46.2489H299.758C298.535 46.2369 296.485 46.0799 296.494 45.1649C296.502 44.4069 298.659 36.2449 298.905 35.3169C298.932 35.2445 298.985 35.1847 299.054 35.1492C299.123 35.1138 299.203 35.1052 299.278 35.1252C299.352 35.1451 299.417 35.1922 299.459 35.2572C299.501 35.3222 299.518 35.4005 299.505 35.4769C298.546 39.0919 297.119 44.6559 297.113 45.1709C297.946 45.535 298.855 45.6911 299.761 45.6259C299.844 45.6236 299.924 45.654 299.984 45.7107C300.044 45.7673 300.079 45.8455 300.081 45.9279C300.083 46.0104 300.053 46.0905 299.996 46.1505C299.94 46.2105 299.862 46.2456 299.779 46.2479L299.782 46.2489Z" fill="#0C0C0C"/>
        </g>
        <path d="M295.61 27.967C294.325 27.6135 292.968 27.6135 291.683 27.967C291.052 28.1368 290.449 28.4004 289.896 28.749C289.35 29.0909 288.848 29.5001 288.404 29.967C288.322 30.0502 288.275 30.1619 288.273 30.2789C288.271 30.3959 288.315 30.5091 288.394 30.5949C288.474 30.6806 288.583 30.7324 288.7 30.7393C288.817 30.7462 288.932 30.7078 289.021 30.632L289.048 30.608C289.459 30.2272 289.916 29.8996 290.408 29.633C290.892 29.3684 291.413 29.1783 291.953 29.069C293.017 28.8465 294.121 28.9083 295.153 29.248L295.197 29.263C295.367 29.3232 295.555 29.3132 295.718 29.2353C295.881 29.1574 296.006 29.0179 296.067 28.8475C296.127 28.6771 296.117 28.4897 296.039 28.3267C295.961 28.1636 295.821 28.0382 295.651 27.978L295.61 27.967Z" fill="#0C0C0C"/>
        <path d="M304.711 28.7389C305.689 28.2643 306.775 28.0573 307.859 28.1389C308.41 28.1744 308.951 28.2935 309.466 28.4919C309.989 28.6903 310.486 28.9537 310.943 29.2759L310.973 29.2949C311.071 29.3589 311.19 29.3824 311.305 29.3605C311.42 29.3385 311.523 29.2728 311.59 29.1772C311.658 29.0815 311.686 28.9634 311.668 28.8476C311.651 28.7317 311.589 28.6272 311.496 28.5559C310.994 28.1517 310.442 27.8127 309.855 27.5469C309.26 27.2752 308.628 27.0942 307.98 27.0099C306.659 26.8303 305.315 27.0106 304.088 27.5319C303.922 27.6038 303.792 27.7386 303.726 27.9066C303.659 28.0747 303.662 28.2622 303.734 28.4279C303.806 28.5937 303.941 28.7241 304.109 28.7905C304.277 28.8569 304.464 28.8538 304.63 28.7819L304.668 28.7639L304.711 28.7389Z" fill="#0C0C0C"/>
        <path d="M304.088 8.62396C304.952 4.48936 303.375 0.66183 300.566 0.0749442C297.757 -0.511941 294.78 2.36406 293.916 6.49865C293.052 10.6333 294.629 14.4608 297.438 15.0476C300.247 15.6345 303.225 12.7586 304.088 8.62396Z" fill="#0C0C0C"/>
        <path d="M262.639 117.766C263.373 126.389 268.578 180.192 269.283 190.814H364.916C365.466 181.234 367.933 139.342 370.016 120.607C372.005 102.73 374.794 94.5941 372.503 89.0391C368.462 79.2391 355.603 74.8651 346.892 73.6861C341.574 72.9661 333.575 72.4501 333.575 72.4501C333.575 72.4501 332.898 86.1501 316.749 86.9121C294.766 87.9501 296.234 72.4501 296.125 72.4501C292.564 72.4501 273.178 75.0391 268.331 78.1991C265.568 79.8796 263.289 82.2506 261.72 85.0788C260.151 87.907 259.345 91.095 259.382 94.3291C259.29 100.762 261.805 107.985 262.639 117.766Z" fill="#367CFF"/>
        <path d="M267.488 169.613C267.42 169.613 267.354 169.587 267.304 169.541C267.254 169.495 267.223 169.432 267.217 169.364L263.594 127.925C263.59 127.889 263.593 127.853 263.604 127.818C263.614 127.783 263.631 127.751 263.654 127.723C263.677 127.695 263.706 127.672 263.738 127.655C263.77 127.638 263.805 127.628 263.841 127.625C263.877 127.621 263.914 127.624 263.949 127.634C263.984 127.644 264.016 127.661 264.044 127.684C264.072 127.708 264.095 127.736 264.112 127.769C264.129 127.801 264.139 127.837 264.141 127.873L267.765 169.312C267.768 169.348 267.764 169.384 267.753 169.418C267.743 169.452 267.725 169.484 267.702 169.511C267.679 169.538 267.651 169.561 267.619 169.578C267.587 169.594 267.553 169.604 267.517 169.607L267.488 169.613Z" fill="#0C0C0C"/>
        <path d="M274.422 193.684L287.553 183.03L285.344 183.655C284.627 183.842 283.865 183.75 283.213 183.398C282.56 183.045 282.066 182.458 281.83 181.755C281.721 181.388 281.688 181.003 281.733 180.622C281.777 180.242 281.899 179.875 282.091 179.543C282.282 179.212 282.539 178.923 282.846 178.693C283.152 178.464 283.503 178.3 283.875 178.211L311.461 171.501L313.834 180.289C314.57 183.018 314.475 185.904 313.56 188.579C312.646 191.253 310.953 193.594 308.7 195.3L298.478 203.013C297.955 203.424 297.306 203.642 296.64 203.629C295.975 203.617 295.334 203.375 294.827 202.944C294.377 202.545 294.067 202.014 293.941 201.426C293.815 200.838 293.88 200.226 294.127 199.678C294.095 199.669 294.065 199.654 294.039 199.633C294.014 199.612 293.992 199.586 293.977 199.557C293.961 199.527 293.952 199.495 293.95 199.462C293.947 199.429 293.951 199.395 293.962 199.364L292.079 200.791C291.497 201.25 290.763 201.472 290.024 201.41C289.285 201.349 288.597 201.009 288.099 200.46C287.671 199.954 287.435 199.313 287.433 198.65C287.431 197.987 287.663 197.345 288.088 196.836C288.059 196.831 288.03 196.821 288.004 196.807L287.23 197.393C286.707 197.804 286.057 198.021 285.392 198.009C284.727 197.996 284.086 197.754 283.579 197.323C283.033 196.84 282.695 196.163 282.637 195.436C282.578 194.709 282.804 193.987 283.266 193.423C283.256 193.407 283.247 193.39 283.239 193.372L277.771 197.808C277.5 198.028 277.188 198.192 276.854 198.292C276.519 198.391 276.168 198.424 275.821 198.388C275.474 198.352 275.137 198.248 274.83 198.081C274.523 197.915 274.252 197.69 274.032 197.419C273.812 197.148 273.648 196.836 273.548 196.502C273.449 196.167 273.416 195.816 273.452 195.469C273.488 195.122 273.592 194.785 273.759 194.478C273.925 194.171 274.15 193.9 274.421 193.68L274.422 193.684Z" fill="#E98862"/>
        <path opacity="0.2" d="M283.574 193.532C283.603 193.522 283.63 193.506 283.654 193.486L288.915 189.116C288.967 189.07 288.999 189.007 289.005 188.938C289.01 188.869 288.989 188.801 288.945 188.747C288.901 188.694 288.838 188.66 288.769 188.653C288.7 188.646 288.631 188.665 288.577 188.708L283.315 193.079C283.267 193.119 283.235 193.174 283.224 193.235C283.213 193.297 283.224 193.36 283.255 193.414C283.286 193.468 283.335 193.509 283.393 193.531C283.451 193.553 283.515 193.553 283.574 193.532Z" fill="#0A0A0A"/>
        <path opacity="0.2" d="M288.211 196.834C288.239 196.823 288.265 196.809 288.289 196.79L292.451 193.39C292.502 193.344 292.533 193.281 292.538 193.213C292.544 193.145 292.523 193.078 292.479 193.025C292.436 192.972 292.374 192.938 292.307 192.929C292.239 192.921 292.171 192.939 292.116 192.98L287.954 196.38C287.906 196.42 287.874 196.475 287.863 196.536C287.851 196.597 287.862 196.66 287.893 196.714C287.923 196.769 287.972 196.81 288.03 196.832C288.088 196.854 288.152 196.855 288.211 196.834Z" fill="#0A0A0A"/>
        <path opacity="0.2" d="M294.3 199.686C294.33 199.675 294.358 199.659 294.383 199.638L296.311 197.984C296.337 197.961 296.359 197.934 296.374 197.903C296.39 197.872 296.399 197.838 296.402 197.803C296.404 197.769 296.4 197.734 296.389 197.701C296.378 197.668 296.361 197.638 296.339 197.612C296.316 197.585 296.288 197.564 296.257 197.548C296.226 197.533 296.193 197.523 296.158 197.521C296.123 197.518 296.089 197.522 296.056 197.533C296.023 197.544 295.992 197.561 295.966 197.584L294.038 199.237C293.991 199.277 293.96 199.333 293.95 199.394C293.94 199.455 293.952 199.517 293.983 199.57C294.014 199.624 294.062 199.665 294.12 199.686C294.178 199.707 294.242 199.707 294.3 199.686Z" fill="#0A0A0A"/>
        <path d="M390.479 167.59L390.379 167.142L372.926 89.942L338.393 97.748L352.017 158.012L297.438 171.42L304.154 202.22L376.884 188.346C377.05 188.313 377.284 188.264 377.455 188.227C379.665 187.728 381.756 186.798 383.607 185.49C385.458 184.182 387.033 182.523 388.242 180.607C389.452 178.69 390.272 176.554 390.656 174.321C391.039 172.087 390.979 169.8 390.479 167.59Z" fill="#367CFF"/>
        <path d="M297.171 171.476C297.156 171.407 297.169 171.335 297.207 171.276C297.244 171.216 297.303 171.173 297.371 171.156L351.704 157.813L342.869 118.793C342.853 118.723 342.866 118.649 342.904 118.588C342.943 118.527 343.004 118.483 343.075 118.468C343.145 118.452 343.219 118.464 343.28 118.503C343.341 118.541 343.384 118.603 343.4 118.673L352.294 157.953C352.31 158.023 352.298 158.096 352.261 158.156C352.223 158.217 352.163 158.261 352.094 158.278L297.757 171.622C297.757 171.622 298.121 173.21 298.224 173.743C298.23 173.811 298.208 173.879 298.165 173.932C298.121 173.985 298.059 174.019 297.991 174.028C297.923 174.036 297.854 174.017 297.8 173.975C297.745 173.934 297.709 173.873 297.698 173.805C297.573 173.221 297.171 171.476 297.171 171.476Z" fill="#0C0C0C"/>
        <path d="M299.3 214.479L278.316 149.979C277.947 148.845 277.229 147.858 276.265 147.157C275.3 146.457 274.139 146.079 272.947 146.079H187.459C186.568 146.079 185.689 146.29 184.895 146.694C184.101 147.099 183.414 147.686 182.89 148.407C182.367 149.128 182.021 149.962 181.882 150.843C181.743 151.723 181.814 152.624 182.09 153.471L203.074 217.971C203.442 219.105 204.16 220.093 205.125 220.793C206.089 221.494 207.251 221.871 208.443 221.871H293.932C294.823 221.871 295.701 221.66 296.495 221.255C297.289 220.85 297.976 220.264 298.499 219.543C299.023 218.822 299.368 217.987 299.507 217.107C299.647 216.227 299.576 215.326 299.3 214.479Z" fill="#292A2E"/>
        <path opacity="0.2" d="M299.3 214.479L278.316 149.979C277.947 148.845 277.229 147.858 276.265 147.157C275.3 146.457 274.139 146.079 272.947 146.079H187.459C186.568 146.079 185.689 146.29 184.895 146.694C184.101 147.099 183.414 147.686 182.89 148.407C182.367 149.128 182.021 149.962 181.882 150.843C181.743 151.723 181.814 152.624 182.09 153.471L203.074 217.971C203.442 219.105 204.16 220.093 205.125 220.793C206.089 221.494 207.251 221.871 208.443 221.871H293.932C294.823 221.871 295.701 221.66 296.495 221.255C297.289 220.85 297.976 220.264 298.499 219.543C299.023 218.822 299.368 217.987 299.507 217.107C299.647 216.227 299.576 215.326 299.3 214.479Z" fill="white"/>
        <path d="M238.233 192.94C243.185 192.94 247.199 188.926 247.199 183.974C247.199 179.022 243.185 175.008 238.233 175.008C233.281 175.008 229.267 179.022 229.267 183.974C229.267 188.926 233.281 192.94 238.233 192.94Z" fill="white"/>
    </g>
    <defs>
        <clipPath id="clip0_1_439">
            <rect width="805.177" height="772.246" fill="white"/>
        </clipPath>
    </defs>
</svg>
